<svg xmlns="http://www.w3.org/2000/svg" viewBox="0 0 1280 224"><defs><style>.cls-1{fill:#a2d9ce}.cls-2{fill:#fff}.cls-3{fill:#4286f3}.cls-4{fill:#5bbfec}.cls-5{fill:#8fd4ef}.cls-6{fill:#04bea8}.cls-7{fill:#88cfc3}.cls-8{fill:#cbe9e2}</style></defs><title>Transition</title><g id="Transitions"><g id="Comets"><path d="M1280,0V21a35.27,35.27,0,0,1-23.59,33.28l-361.73,127c-162.11,56.92-347.25,56.92-509.36,0L23.59,54.28A35.27,35.27,0,0,1,0,21V0Z" class="cls-1"/><path d="M1280,0V4a35.34,35.34,0,0,1-23.59,33.36L894.68,164.71c-162.11,57-347.25,57-509.36,0L23.59,37.37A35.34,35.34,0,0,1,0,4V0Z" class="cls-2"/><g id="Large_comet" data-name="Large comet"><path d="M549.6,99.68a4.35,4.35,0,0,1-2.5-5.62,4.2,4.2,0,0,1,.8-1.28l-23.36-9a4.46,4.46,0,0,1-2.8-5.27,4.34,4.34,0,0,1,5.75-2.9l37.56,14.46a4.34,4.34,0,0,1-.84-4.45.35.35,0,0,1,0-.08l-18-6.92a4.46,4.46,0,0,1-2.8-5.27,4.35,4.35,0,0,1,5.75-2.9l34.68,13.36a4.32,4.32,0,0,1,.09-2.94,4.49,4.49,0,0,1,5.78-2.36l12.56,4.84c.58.16,1.15.34,1.73.56L747.63,139l-12.28,31.89-143.54-55c-.36-.14-.71-.29-1.07-.45Z" class="cls-3"/><path d="M751.27,155.89l-13.84-5.22a3.09,3.09,0,0,0,2.8-3.09l3.53,1.33a3.28,3.28,0,0,0,4.17-1.62,3.16,3.16,0,0,0-1.78-4.22L625.57,97.62a3.43,3.43,0,0,0-3.63.71,3,3,0,0,0-.87,2.12l-17-6.4a3.27,3.27,0,0,0-4.17,1.62,3.15,3.15,0,0,0,1.77,4.22l27.37,10.32a3.12,3.12,0,0,0-2.61,2s0,0,0,.06l-13-4.91a3.27,3.27,0,0,0-4.17,1.61,3.17,3.17,0,0,0,1.78,4.23l25.26,9.52a3.08,3.08,0,0,0-1.35,1.59,3.32,3.32,0,0,0,2,4.13l89.23,33.63a3.31,3.31,0,0,0,4.22-1.78,3.13,3.13,0,0,0,0-2.09l1.42.54a3.17,3.17,0,0,0,4.07-1.84l0-.06,13.2,5a3.16,3.16,0,0,0,4.24-2.48A3.21,3.21,0,0,0,751.27,155.89Z" class="cls-4"/><path d="M750.71,152.19l-19.28-7.43a2.45,2.45,0,0,0,2.2-1.63,2.88,2.88,0,0,0-1.94-3.45l-83-30.15a2.65,2.65,0,0,0-3.53,1.46,2.88,2.88,0,0,0,1.94,3.45l16.71,6.07a3.1,3.1,0,0,0-.49.76,2.79,2.79,0,0,0-.19,1.59l-26.51-10.24a2.54,2.54,0,0,0-3.16,1.53,2.36,2.36,0,0,0,1.16,3.2l20.5,7.92a3,3,0,0,0-.42.67,2.72,2.72,0,0,0-.22.81l-7.57-2.83a2.55,2.55,0,0,0-3.07,1.6,2.28,2.28,0,0,0,1.07,3.13l84.62,31.61a2.44,2.44,0,0,0,2.84-1.15l16.82,6.58a2.53,2.53,0,0,0,3.1-1.54,2.28,2.28,0,0,0-1-3.15l-25.69-10.06a2.76,2.76,0,0,0,.67-1,2.62,2.62,0,0,0,.14-1.67l22.26,8.58a2.54,2.54,0,0,0,3.09-1.56A2.27,2.27,0,0,0,750.71,152.19Z" class="cls-5"/><circle cx="741.32" cy="155.08" r="17.68" class="cls-3"/></g><g id="Large_comet-2" data-name="Large comet"><path d="M594.92,40.48a3.19,3.19,0,0,0-4.36,3l-17.38-6.59a3.36,3.36,0,0,0-4.27,1.65,3.24,3.24,0,0,0,1.81,4.33l28,10.62a3.21,3.21,0,0,0-2.67,2.06s0,0,0,.06l-13.34-5.06a3.37,3.37,0,0,0-4.28,1.65,3.24,3.24,0,0,0,1.81,4.33l25.86,9.81a3.22,3.22,0,0,0-1.4,1.63,3.4,3.4,0,0,0,2,4.22l9.35,3.55a12.85,12.85,0,0,0,1.24.54L724.19,117l9-23.77L626.32,52.49l-.81-.27Z" class="cls-6"/><path d="M734.58,109.39l-10.24-4a2.32,2.32,0,0,1,.45,2.4,2.17,2.17,0,0,1-.43.7l2.62,1a2.44,2.44,0,0,1,1.5,3A2.35,2.35,0,0,1,725.4,114L636,79.32a2.53,2.53,0,0,1-1.65-2.13,2.18,2.18,0,0,1,.56-1.67l-12.58-4.87a2.44,2.44,0,0,1-1.51-3,2.35,2.35,0,0,1,3.08-1.46l20.29,7.86a2.34,2.34,0,0,1-.45-2.41.08.08,0,0,1,0,0l-9.67-3.75a2.43,2.43,0,0,1-1.5-3,2.34,2.34,0,0,1,3.08-1.46l18.73,7.26a2.27,2.27,0,0,1,0-1.52,2.48,2.48,0,0,1,3.19-1.33L723.73,93.5a2.47,2.47,0,0,1,1.47,3.12,2.35,2.35,0,0,1-1,1.14l1.06.41a2.35,2.35,0,0,1,1.34,3,.08.08,0,0,0,0,0l9.79,3.8a2.35,2.35,0,0,1,1.13,3.45A2.41,2.41,0,0,1,734.58,109.39Z" class="cls-7"/><path d="M732.45,111.18l-14.36-5.45a1.79,1.79,0,0,1,.4,2,2.13,2.13,0,0,1-2.78,1l-61-24.47a2,2,0,0,1-1.23-2.57,2.15,2.15,0,0,1,2.79-.95l12.27,4.93a2.16,2.16,0,0,1,.1-.66,2.09,2.09,0,0,1,.68-1l-19.77-7.48a1.89,1.89,0,0,1-1-2.41,1.75,1.75,0,0,1,2.23-1.2l15.29,5.78a2.35,2.35,0,0,1,.1-.58,2.44,2.44,0,0,1,.28-.56l-5.59-2.19a1.88,1.88,0,0,1-.92-2.4,1.7,1.7,0,0,1,2.15-1.21l62.6,24.47a1.83,1.83,0,0,1,1,2l12.59,4.7a1.89,1.89,0,0,1,.95,2.39,1.7,1.7,0,0,1-2.13,1.24L717.91,99.4a2.15,2.15,0,0,1-.11.86,1.9,1.9,0,0,1-.75,1l16.6,6.3a1.88,1.88,0,0,1,.94,2.39A1.7,1.7,0,0,1,732.45,111.18Z" class="cls-8"/><circle cx="728.69" cy="104.91" r="13.31" class="cls-6"/></g><g id="Large_comet-3" data-name="Large comet"><path d="M554.86,143.88a3.22,3.22,0,0,1-1.87-4.17,3.15,3.15,0,0,1,.59-1l-17.36-6.62a3.35,3.35,0,0,1-2.1-4.07,3.24,3.24,0,0,1,4.23-2l28,10.68a3.21,3.21,0,0,1-.63-3.31l0-.06-13.33-5.09a3.35,3.35,0,0,1-2.1-4.07,3.23,3.23,0,0,1,4.23-2L580.36,132a3.15,3.15,0,0,1,0-2.14,3.38,3.38,0,0,1,4.33-1.8l9.34,3.56c.42.12.85.25,1.28.42l106.92,40.62-9.06,23.75L586.3,155.78c-.27-.1-.53-.22-.79-.34Z" class="cls-6"/><path d="M705,185.23l-10.28-3.84a2.34,2.34,0,0,0,1.93-1.51,2.21,2.21,0,0,0,.14-.8l2.63,1a2.44,2.44,0,0,0,3.1-1.21,2.35,2.35,0,0,0-1.33-3.14l-89.82-33.54a2.55,2.55,0,0,0-2.65.5,2.2,2.2,0,0,0-.69,1.62l-12.64-4.72a2.44,2.44,0,0,0-3.1,1.21,2.35,2.35,0,0,0,1.33,3.14L614,151.53a2.36,2.36,0,0,0-1.93,1.5.09.09,0,0,0,0,.05l-9.72-3.63a2.43,2.43,0,0,0-3.09,1.22,2.33,2.33,0,0,0,1.33,3.13l18.81,7a2.38,2.38,0,0,0-1,1.15,2.49,2.49,0,0,0,1.51,3.11l66.42,24.8a2.47,2.47,0,0,0,3.17-1.36,2.33,2.33,0,0,0,0-1.52l1.06.4a2.35,2.35,0,0,0,3-1.38l0-.05,9.83,3.67a2.34,2.34,0,0,0,3.14-1.82A2.39,2.39,0,0,0,705,185.23Z" class="cls-7"/><path d="M704.6,182.48,690.24,177a1.81,1.81,0,0,0,1.63-1.22,2.13,2.13,0,0,0-1.45-2.56L628.61,151a2,2,0,0,0-2.63,1.1,2.15,2.15,0,0,0,1.45,2.56l12.45,4.48a1.92,1.92,0,0,0-.36.56,2,2,0,0,0-.14,1.18l-19.75-7.55a1.9,1.9,0,0,0-2.35,1.14,1.77,1.77,0,0,0,.88,2.38l15.26,5.85a2.26,2.26,0,0,0-.31.49,2,2,0,0,0-.16.61l-5.64-2.09a1.89,1.89,0,0,0-2.28,1.2,1.7,1.7,0,0,0,.8,2.33l63,23.32a1.84,1.84,0,0,0,2.12-.87l12.52,4.86a1.89,1.89,0,0,0,2.3-1.15A1.68,1.68,0,0,0,705,189l-19.14-7.43a2,2,0,0,0,.5-.71,2.06,2.06,0,0,0,.1-1.24L703.08,186a1.9,1.9,0,0,0,2.3-1.17A1.71,1.71,0,0,0,704.6,182.48Z" class="cls-8"/><circle cx="696.83" cy="184.12" r="13.17" class="cls-6"/></g></g></g></svg>