<svg viewBox="0 0 1280 269" xmlns="http://www.w3.org/2000/svg"><path d="m1280 19.91h-1281v78.83a39.26 39.26 0 0 0 39.26 39.26h384.28a23.27 23.27 0 0 1 19 10 89 89 0 0 0 72.87 37.85q4.51 0 8.91-.44a23 23 0 0 1 23.34 14.12 113.13 113.13 0 0 0 209.12-2.36 22.77 22.77 0 0 1 23.32-14.17 58.33 58.33 0 0 0 5.94.3 59 59 0 0 0 52.64-32.3 23.33 23.33 0 0 1 20.73-13h382.33a39.26 39.26 0 0 0 39.26-39.26z" fill="#4286f3"/><path d="m1280-.1h-1281v78.83a39.26 39.26 0 0 0 39.26 39.27h384.28a23.26 23.26 0 0 1 19 10 88.94 88.94 0 0 0 72.87 37.85q4.51 0 8.91-.44a23 23 0 0 1 23.34 14.12 113.13 113.13 0 0 0 209.12-2.36 22.77 22.77 0 0 1 23.33-14.19 58.33 58.33 0 0 0 5.94.3 59 59 0 0 0 52.64-32.31 23.34 23.34 0 0 1 20.72-12.97h382.33a39.26 39.26 0 0 0 39.26-39.27z" fill="#1b1464"/><circle cx="650.27" cy="135.18" fill="#8fd4ef" r="53.68"/><circle cx="650.27" cy="135.18" fill="#4286f3" r="46.06"/><path d="m606.67 150.3a46.43 46.43 0 0 0 1.8 4.42l86.57-30a45.11 45.11 0 0 0 -1.33-4.59c-.48-1.37-1-2.7-1.61-4l-86.65 30.07c.34 1.34.75 2.72 1.22 4.1z" fill="#1b1464"/><path d="m664.65 94.68-55.41 19.42a46.13 46.13 0 0 0 -3.53 9.13l61.47-21.51a3.71 3.71 0 0 0 .45-6.81h-.09a3.72 3.72 0 0 0 -2.89-.23z" fill="#1b1464"/><path d="m604.31 139.4 59-20.32a3 3 0 0 0 1.35-4.62 2.93 2.93 0 0 0 -3.27-.94l-57.18 19.69a46.57 46.57 0 0 0 .1 6.19z" fill="#1b1464"/><path d="m615.65 165.68 39.63-14.57a3 3 0 0 0 2-2.73v-.06a2.94 2.94 0 0 0 -3.92-2.81l-41.48 15.2a44.26 44.26 0 0 0 3.77 4.97z" fill="#1b1464"/><path d="m631.72 177.39 17.76-6.39a3.76 3.76 0 0 0 2.13-1.88v-.09a3.7 3.7 0 0 0 -4.54-5.1l-24 8.56a46.1 46.1 0 0 0 8.65 4.9z" fill="#1b1464"/><rect fill="#8fd4ef" height="16.34" rx="8.16" transform="matrix(.94246658 -.33430038 .33430038 .94246658 -7.91 225.33)" width="167.46" x="566.99" y="127.47"/><circle cx="702.68" cy="101.37" fill="#8fd4ef" r="4.54"/><circle cx="716.75" cy="88.21" fill="#4286f3" r="4.54"/><circle cx="581.51" cy="181.25" fill="#4286f3" r="4.54"/><circle cx="724.01" cy="127.7" fill="#8fd4ef" r="4.54"/><circle cx="587.87" cy="139.95" fill="#8fd4ef" r="4.54"/><circle cx="558.98" cy="70.72" fill="#a2d9ce" r="11.71"/><circle cx="560.96" cy="65.17" fill="#88cfc3" r="2.58"/><circle cx="560.96" cy="64.36" fill="#5dc3b3" r="1.79"/><circle cx="561.75" cy="77.06" fill="#88cfc3" r="2.58"/><circle cx="562.56" cy="76.25" fill="#5dc3b3" r="1.79"/><circle cx="553.02" cy="74.68" fill="#5dc3b3" r="2.58"/><circle cx="551.41" cy="73.87" fill="#88cfc3" r="1.79"/><circle cx="551.64" cy="66.94" fill="#88cfc3" r="1.59"/><circle cx="551.64" cy="66.13" fill="#5dc3b3" r="1.1"/><circle cx="562.75" cy="71.3" fill="#5dc3b3" r="1.59"/><circle cx="563.55" cy="71.3" fill="#88cfc3" r="1.1"/><circle cx="566.71" cy="65.75" fill="#5dc3b3" r="1.59"/><circle cx="565.91" cy="66.56" fill="#88cfc3" r="1.1"/><circle cx="499.72" cy="76.75" fill="#8fd4ef" r="41.6"/><circle cx="499.16" cy="77.05" fill="#4fc2f8" r="31.31"/><path d="m500.13 93.15a3.56 3.56 0 0 1 4.42-2.45l10.76 3.09.19-.18a3.57 3.57 0 0 1 3.07-6.33l-18.92-5.44a3.57 3.57 0 0 1 2-6.87l10.32 3a3.58 3.58 0 1 1 2-6.88l5.16 1.48a3.57 3.57 0 0 1 .32-6.94l-.29-.5-9.24-2.65a3.56 3.56 0 0 1 -.92-6.48 22.79 22.79 0 0 0 -3.41-1.28 23.17 23.17 0 0 0 -13.86.33 3.56 3.56 0 0 1 -4.33 4.69l11.18 3.21a3.58 3.58 0 1 1 -2 6.88l-5.16-1.48a3.58 3.58 0 0 1 -2 6.88l-10.32-3a3.58 3.58 0 0 1 -2 6.88l18.92 5.43a3.58 3.58 0 0 1 -2 6.88l-12-3.45a3.58 3.58 0 0 1 1.32 6.17 23.23 23.23 0 0 0 23.77 4.75l-4.58-1.31a3.58 3.58 0 0 1 -2.4-4.43z" fill="#04bea8"/><path d="m509.87 62.44 9.24 2.65a23.17 23.17 0 0 0 -10.11-9.09 3.56 3.56 0 0 0 .88 6.47z" fill="#88cfc3"/><path d="m519.4 65.59a3.57 3.57 0 0 0 -.32 6.94l3.06.88a23.37 23.37 0 0 0 -2.74-7.82z" fill="#88cfc3"/><path d="m522.14 73.41-3.06-.88-5.16-1.48a3.58 3.58 0 1 0 -2 6.88l10.17 2.92a23.22 23.22 0 0 0 .05-7.44z" fill="#88cfc3"/><path d="m522.11 80.85-10.17-2.92-10.32-3a3.57 3.57 0 0 0 -2 6.87l18.92 5.44 1.3.37a23.16 23.16 0 0 0 1.65-4.18 24.66 24.66 0 0 0 .62-2.58z" fill="#88cfc3"/><path d="m514.14 89.73a3.57 3.57 0 0 0 1.36 3.88 23 23 0 0 0 4.37-6l-1.3-.37a3.58 3.58 0 0 0 -4.43 2.49z" fill="#88cfc3"/><path d="m515.31 93.79-10.76-3.09a3.58 3.58 0 0 0 -2 6.88l4.58 1.31a23.37 23.37 0 0 0 8.18-5.1z" fill="#88cfc3"/><path d="m484.61 58.91 2.78.8a3.56 3.56 0 0 0 4.33-4.71 23.25 23.25 0 0 0 -7.11 3.91z" fill="#cbe9e2"/><path d="m479.36 64.85 12.07 3.47 5.16 1.48a3.58 3.58 0 1 0 2-6.88l-11.18-3.21-2.78-.8a23.19 23.19 0 0 0 -5.27 5.94z" fill="#cbe9e2"/><path d="m476.81 70.63c-.09.29-.16.58-.23.87l2.56.73 10.32 3a3.58 3.58 0 0 0 2-6.88l-12.07-3.47a23.14 23.14 0 0 0 -2.58 5.75z" fill="#cbe9e2"/><path d="m476 78.77 1.2.34a3.58 3.58 0 0 0 2-6.88l-2.56-.73a23.1 23.1 0 0 0 -.64 7.27z" fill="#cbe9e2"/><path d="m478.06 86.82 4 1.15 12 3.45a3.58 3.58 0 0 0 2-6.88l-18.92-5.43-1.2-.34a23.21 23.21 0 0 0 2.12 8.05z" fill="#cbe9e2"/><path d="m482.07 88-4-1.15a23.25 23.25 0 0 0 5.33 7.32 3.58 3.58 0 0 0 -1.33-6.17z" fill="#cbe9e2"/><circle cx="788.35" cy="104.19" fill="#a2d9ce" r="24.85"/><circle cx="788.38" cy="104.57" fill="#5dc3b3" r="18.71"/><path d="m797.38 108a2.13 2.13 0 0 1 -.24-3l4.33-5.1-.06-.15a2.12 2.12 0 0 1 -2.44-.21 2.14 2.14 0 0 1 -.25-3l-7.61 9a2.14 2.14 0 1 1 -3.26-2.77l4.15-4.95a2.14 2.14 0 0 1 -3.26-2.76l2.08-2.45a2.15 2.15 0 0 1 -3 .25 2.12 2.12 0 0 1 -.68-2.13h-.35l-3.71 4.37a2.14 2.14 0 0 1 -3 .25 2.07 2.07 0 0 1 -.73-1.36 13.19 13.19 0 0 0 -1.53 1.55 13.88 13.88 0 0 0 -3.24 7.62 2.13 2.13 0 0 1 1.49 3.51l4.5-5.29a2.14 2.14 0 0 1 3.26 2.76l-2.07 2.45a2.14 2.14 0 1 1 3.24 2.81l-4.15 4.89a2.14 2.14 0 1 1 3.26 2.76l7.6-9a2.15 2.15 0 0 1 3-.25 2.13 2.13 0 0 1 .24 3l-4.84 5.71a2.13 2.13 0 0 1 3.69.8 13.88 13.88 0 0 0 8.43-11.77l-1.84 2.16a2.14 2.14 0 0 1 -3.01.3z" fill="#a2d9ce"/><path d="m783.06 95.14 3.71-4.37a13.85 13.85 0 0 0 -7.45 3.23 2.07 2.07 0 0 0 .73 1.36 2.14 2.14 0 0 0 3.01-.22z" fill="#04bea8"/><path d="m787.12 90.73a2.12 2.12 0 0 0 .68 2.13 2.15 2.15 0 0 0 3-.25l1.23-1.45a14 14 0 0 0 -4.91-.43z" fill="#04bea8"/><path d="m792.05 91.16-1.23 1.45-2.08 2.45a2.14 2.14 0 0 0 3.26 2.76l4.09-4.82a13.9 13.9 0 0 0 -4.04-1.84z" fill="#04bea8"/><path d="m796.09 93-4.09 4.82-4.15 4.89a2.14 2.14 0 1 0 3.26 2.77l7.61-9 .52-.62a13.61 13.61 0 0 0 -1.87-1.86 12.94 12.94 0 0 0 -1.28-1z" fill="#04bea8"/><path d="m799 99.53a2.12 2.12 0 0 0 2.44.21 13.84 13.84 0 0 0 -2.17-3.84l-.52.62a2.14 2.14 0 0 0 .25 3.01z" fill="#04bea8"/><path d="m801.47 99.89-4.33 5.1a2.14 2.14 0 1 0 3.26 2.76l1.84-2.16a14 14 0 0 0 -.77-5.7z" fill="#04bea8"/><g fill="#1b1464"><path d="m774.93 108 1.11-1.32a2.13 2.13 0 0 0 -1.49-3.51 14 14 0 0 0 .38 4.83z"/><path d="m776.87 112.35 4.86-5.72 2.07-2.45a2.14 2.14 0 0 0 -3.26-2.76l-4.5 5.29-1.11 1.29a13.87 13.87 0 0 0 1.94 4.35z"/><path d="m779.39 115.16.42.34 1-1.21 4.19-4.89a2.14 2.14 0 1 0 -3.26-2.77l-4.86 5.72a13.89 13.89 0 0 0 2.51 2.81z"/><path d="m783.61 117.62.49-.57a2.14 2.14 0 1 0 -3.26-2.76l-1 1.21a14 14 0 0 0 3.77 2.12z"/><path d="m788.51 118.46 1.61-1.9 4.84-5.71a2.13 2.13 0 0 0 -.24-3 2.15 2.15 0 0 0 -3 .25l-7.6 9-.49.57a13.81 13.81 0 0 0 4.88.79z"/><path d="m790.12 116.56-1.61 1.9a14.08 14.08 0 0 0 5.3-1.1 2.13 2.13 0 0 0 -3.69-.8z"/></g><path d="m767.87 98.37a5.91 5.91 0 1 1 -10.16-6 6 6 0 0 1 .95-1.21 5.85 5.85 0 0 1 1.67-1.16 4.93 4.93 0 0 1 .64-.24 5.64 5.64 0 0 1 1.63-.29 5.3 5.3 0 0 1 .69 0 5.88 5.88 0 0 1 1.42.29 6.08 6.08 0 0 1 .94.43l.16.08h.06a5.88 5.88 0 0 1 1.66 1.51l.37.57a.08.08 0 0 1 0 0 5.88 5.88 0 0 1 -.03 6.02z" fill="#4286f3"/><circle cx="760.55" cy="92.85" fill="#cbe9e2" r="1.3"/><circle cx="760.55" cy="92.85" fill="#4fc2f8" r=".9"/><circle cx="766.25" cy="95.79" fill="#4fc2f8" r="1.3"/><circle cx="766.25" cy="95.79" fill="#cbe9e2" r=".9"/><circle cx="762.97" cy="98.95" fill="#4fc2f8" r="1.3"/><circle cx="762.97" cy="98.95" fill="#cbe9e2" r=".9"/><circle cx="759.26" cy="97.56" fill="#cbe9e2" r=".8"/><circle cx="759.26" cy="97.56" fill="#4fc2f8" r=".55"/><circle cx="764.02" cy="93.87" fill="#4fc2f8" r=".8"/><circle cx="764.02" cy="93.87" fill="#cbe9e2" r=".55"/><circle cx="762.63" cy="90.72" fill="#cbe9e2" r=".8"/><circle cx="762.63" cy="90.72" fill="#4fc2f8" r=".55"/><path d="m768.6 110.2a4.28 4.28 0 0 1 -7.35-4.38 4.27 4.27 0 0 1 .69-.87 4.14 4.14 0 0 1 1.21-.83 3.66 3.66 0 0 1 .46-.18 4.53 4.53 0 0 1 1.68-.19 4.63 4.63 0 0 1 1 .21 5.23 5.23 0 0 1 .69.31l.11.06a4.07 4.07 0 0 1 1.2 1.09c.1.15.19.3.27.41s0 0 0 0a4.27 4.27 0 0 1 .04 4.37z" fill="#04bea8"/><circle cx="766.28" cy="106.02" fill="#4fc2f8" r=".77"/><circle cx="763.42" cy="106.42" fill="#cbe9e2" r=".54"/><circle cx="762.76" cy="108.14" fill="#4fc2f8" r=".77"/><circle cx="763.58" cy="108.55" fill="#cbe9e2" r=".54"/><circle cx="766.19" cy="109.98" fill="#4fc2f8" r=".48"/><circle cx="764.15" cy="110.8" fill="#cbe9e2" r=".33"/><circle cx="767.66" cy="107.94" fill="#cbe9e2" r=".48"/><circle cx="767.25" cy="108.35" fill="#4fc2f8" r=".33"/></svg>