<svg xmlns="http://www.w3.org/2000/svg" width="1280" height="256"><rect id="backgroundrect" width="100%" height="100%" x="0" y="0" fill="none" stroke="none"/><defs><style>.cls-1{fill:#1b1464}.cls-2{fill:#4286f3}.cls-3{fill:#88cfc3}.cls-4{fill:#4fc2f8}.cls-5{fill:#fff}.cls-6{fill:#04bea8}</style></defs><title>Transition</title><g class="currentLayer"><title>Layer 1</title><g id="Transitions"><g id="Stars"><path id="svg_1" d="M 1280.36 15.7055 V 88.8455 A 38.88 38.88 0 0 1 1241.47 127.706 H 1007.05 a 42.77 42.77 0 0 0 -38.86 24.3 A 74.12 74.12 0 0 1 856.359 179.706 a 11.85 11.85 0 0 0 -13.72 -0.52 A 51.82 51.82 0 0 1 814 187.706 h 0 a 4.25 4.25 0 0 0 -4.19 3.52 a 77.09 77.09 0 0 1 -138.64 31.16 a 10.67 10.67 0 0 0 -10.1 -4.3 a 68.13 68.13 0 0 1 -73.32 -44.57 a 11.17 11.17 0 0 0 -9.09 -7.29 l -0.24 0 a 32.33 32.33 0 0 0 -26.43 8 A 55.08 55.08 0 0 1 468.65 163.706 a 18.34 18.34 0 0 0 -16.2 -8.1 c -0.91 0 -1.82 0.06 -2.74 0.06 a 63.27 63.27 0 0 1 -14.2 -1.61 a 24.4 24.4 0 0 0 -21.89 5.8 a 56.08 56.08 0 0 1 -83.61 -8.68 A 55.14 55.14 0 0 0 285.27 127.706 h -247 A 38.88 38.88 0 0 1 -0.640501 88.8455 V 15.7055 Z" class="cls-1"/><path id="svg_2" d="M 1280.36 -0.294462 V 72.8455 A 38.88 38.88 0 0 1 1241.47 111.706 H 1007.05 a 42.77 42.77 0 0 0 -38.86 24.3 A 74.12 74.12 0 0 1 856.359 163.706 a 11.85 11.85 0 0 0 -13.72 -0.52 A 51.82 51.82 0 0 1 814 171.706 h 0 a 4.25 4.25 0 0 0 -4.19 3.52 a 77.09 77.09 0 0 1 -138.64 31.16 a 10.67 10.67 0 0 0 -10.1 -4.3 a 68.13 68.13 0 0 1 -73.32 -44.57 a 11.17 11.17 0 0 0 -9.09 -7.29 l -0.24 0 a 32.33 32.33 0 0 0 -26.43 8 A 55.08 55.08 0 0 1 468.65 147.706 a 18.34 18.34 0 0 0 -16.2 -8.1 c -0.91 0 -1.82 0.06 -2.74 0.06 a 63.27 63.27 0 0 1 -14.2 -1.61 a 24.4 24.4 0 0 0 -21.89 5.8 a 56.08 56.08 0 0 1 -83.61 -8.68 A 55.14 55.14 0 0 0 285.27 111.706 h -247 A 38.88 38.88 0 0 1 -0.640501 72.8455 V -0.294462 Z" class="cls-2"/><path id="svg_3" d="M 910.479 116.896 s 0 -0.1 0 -0.15 a 0.75 0.75 0 0 0 0 -0.16 s 0 -0.1 0 -0.14 s 0 -0.12 -0.0700001 -0.17 l 0 -0.06 a 0.21 0.21 0 0 0 0 -0.06 a 1.3 1.3 0 0 0 -0.1 -0.15 l -0.09 -0.12 l -0.11 -0.1 l -0.12 -0.11 l -0.06 0 c -5.68 -3.74 -7 -11 -7.22 -13.19 a 0.29 0.29 0 0 1 0 -0.09 a 0.8 0.8 0 0 0 0 -0.18 a 0.58 0.58 0 0 0 0 -0.14 l -0.06 -0.16 l -0.0700001 -0.13 l -0.1 -0.14 l -0.08 -0.1 l -0.12 -0.12 a 0.39 0.39 0 0 0 -0.1 -0.08 a 0.71 0.71 0 0 0 -0.14 -0.1 l -0.12 -0.06 l -0.14 -0.06 l -0.15 0 l -0.09 0 h -0.39 l -0.1 0 l -0.14 0 l -0.15 0.06 l -0.11 0.06 l -0.15 0.1 l -0.09 0.0700001 l -0.13 0.14 l -0.0700001 0.09 a 1.3 1.3 0 0 0 -0.1 0.15 a 0.75 0.75 0 0 0 -0.0700001 0.12 s 0 0.1 -0.0700001 0.16 l 0 0.13 a 1.29 1.29 0 0 0 0 0.19 a 0.29 0.29 0 0 0 0 0.09 c -0.26 2.15 -1.54 9.45 -7.22 13.19 l -0.0700001 0.06 l -0.11 0.09 l -0.12 0.12 a 0.44 0.44 0 0 0 -0.08 0.11 l -0.11 0.15 l 0 0.06 s 0 0 0 0.06 a 0.87 0.87 0 0 0 -0.0700001 0.17 s 0 0.09 0 0.14 l 0 0.16 a 0.77 0.77 0 0 0 0 0.15 a 0.92 0.92 0 0 0 0 0.16 a 0.81 0.81 0 0 0 0 0.16 a 0.78 0.78 0 0 0 0 0.16 l 0 0.16 l 0 0.14 a 1.22 1.22 0 0 0 0.0700001 0.17 s 0 0 0 0.06 l 0 0 a 2.48 2.48 0 0 0 0.19 0.26 l 0 0.06 a 1.38 1.38 0 0 0 0.26 0.22 c 5.68 3.75 7 11.05 7.22 13.2 c 0 0 0 0 0 0 a 2.15 2.15 0 0 0 0.15 0.51 l 0 0.06 a 1.79 1.79 0 0 0 0.3 0.42 h 0 a 1.62 1.62 0 0 0 0.41 0.27 l 0 0 a 1.08 1.08 0 0 0 0.32 0.09 l 0.19 0 h 0 l 0.19 0 a 1.17 1.17 0 0 0 0.32 -0.09 l 0 0 a 1.62 1.62 0 0 0 0.41 -0.27 h 0 a 1.79 1.79 0 0 0 0.3 -0.42 l 0 -0.06 a 2.15 2.15 0 0 0 0.15 -0.51 s 0 0 0 0 c 0.26 -2.15 1.54 -9.45 7.22 -13.2 a 1.38 1.38 0 0 0 0.26 -0.22 l 0.0500001 -0.06 a 1.51 1.51 0 0 0 0.18 -0.26 l 0 0 l 0 -0.06 c 0 -0.06 0 -0.11 0.0700001 -0.17 s 0 -0.09 0 -0.14 a 0.940001 0.940001 0 0 0 0 -0.16 s 0 -0.1 0 -0.16 v -0.32 Z" class="cls-3"/><path id="svg_4" d="M 591.959 112.356 s 0 -0.06 0 -0.09 a 0.3 0.3 0 0 0 0 -0.1 a 0.32 0.32 0 0 0 0 -0.09 a 0.3 0.3 0 0 0 0 -0.1 s 0 0 0 0 l 0 0 l -0.06 -0.09 l -0.06 -0.0700001 l -0.06 -0.0700001 l -0.08 -0.06 l 0 0 c -3.48 -2.3 -4.27 -6.78 -4.43 -8.1 c 0 0 0 0 0 -0.06 l 0 -0.11 a 0.32 0.32 0 0 0 0 -0.09 a 0.36 0.36 0 0 0 0 -0.09 a 0.2 0.2 0 0 0 0 -0.08 l -0.06 -0.09 l 0 -0.06 l -0.0700001 -0.08 l -0.06 0 l -0.09 -0.06 l -0.0700001 0 l -0.09 0 l -0.09 0 h -0.3 l -0.0500001 0 l -0.09 0 l -0.1 0 l -0.06 0 a 0.22 0.22 0 0 0 -0.09 0.0700001 l -0.06 0 l -0.08 0.08 l 0 0.06 l -0.06 0.09 a 0.25 0.25 0 0 1 0 0.0700001 a 1 1 0 0 1 0 0.1 l 0 0.09 s 0 0.0700001 0 0.11 s 0 0 0 0.06 c -0.16 1.32 -0.95 5.8 -4.44 8.1 l 0 0 l -0.0700001 0.06 l -0.0700001 0.0700001 l 0 0.0700001 l -0.0700001 0.09 a 0.0500001 0.0500001 0 0 1 0 0 s 0 0 0 0 a 0.930001 0.930001 0 0 0 0 0.1 l 0 0.09 a 0.44 0.44 0 0 1 0 0.1 s 0 0.06 0 0.09 v 0.2 s 0 0.06 0 0.09 a 0.44 0.44 0 0 1 0 0.1 l 0 0.09 s 0 0.0700001 0 0.1 a 0.06 0.06 0 0 0 0 0 l 0 0 a 0.91 0.91 0 0 0 0.11 0.16 l 0 0 a 1.07 1.07 0 0 0 0.16 0.14 c 3.49 2.3 4.28 6.78 4.44 8.1 l 0 0 a 0.85 0.85 0 0 0 0.09 0.31 s 0 0 0 0 a 1.14 1.14 0 0 0 0.18 0.25 h 0 a 1 1 0 0 0 0.25 0.17 h 0 a 0.6 0.6 0 0 0 0.19 0.06 h 0.25 a 0.7 0.7 0 0 0 0.19 -0.06 h 0 a 0.9 0.9 0 0 0 0.26 -0.17 h 0 a 0.92 0.92 0 0 0 0.19 -0.25 s 0 0 0 0 a 0.85 0.85 0 0 0 0.09 -0.31 s 0 0 0 0 c 0.16 -1.32 0.95 -5.8 4.43 -8.1 l 0.17 -0.14 l 0 0 a 0.91 0.91 0 0 0 0.11 -0.16 s 0 0 0 0 v 0 a 0.42 0.42 0 0 0 0 -0.1 a 0.32 0.32 0 0 0 0 -0.09 a 0.3 0.3 0 0 0 0 -0.1 s 0 -0.06 0 -0.09 v -0.2 Z" class="cls-4"/><path id="svg_5" d="M 523.279 128.196 a 0.68 0.68 0 0 0 0 -0.14 l 0 -0.14 a 0.56 0.56 0 0 0 0 -0.12 l -0.06 -0.15 l 0 0 l 0 0 l -0.09 -0.13 l -0.08 -0.1 a 0.47 0.47 0 0 0 -0.1 -0.1 l -0.11 -0.09 l -0.0500001 0 c -5 -3.27 -6.08 -9.65 -6.31 -11.53 c 0 0 0 0 0 -0.08 a 0.940001 0.940001 0 0 0 0 -0.16 a 0.56 0.56 0 0 0 0 -0.12 a 0.52 0.52 0 0 0 -0.06 -0.13 a 0.67 0.67 0 0 0 -0.06 -0.12 l -0.08 -0.12 l -0.0700001 -0.09 l -0.11 -0.11 l -0.08 -0.0700001 l -0.12 -0.08 l -0.11 0 l -0.12 -0.06 l -0.13 0 l -0.08 0 h -0.35 l -0.08 0 l -0.13 0 l -0.13 0.06 l -0.09 0 l -0.13 0.09 l -0.08 0.06 l -0.11 0.12 l -0.0700001 0.08 a 0.57 0.57 0 0 0 -0.08 0.13 l -0.06 0.1 l -0.06 0.14 a 0.56 0.56 0 0 0 0 0.12 a 0.45 0.45 0 0 0 0 0.16 a 0.31 0.31 0 0 0 0 0.08 c -0.23 1.88 -1.35 8.26 -6.31 11.53 l -0.06 0 l -0.1 0.09 l -0.1 0.1 l -0.0700001 0.09 a 0.55 0.55 0 0 0 -0.09 0.14 l 0 0 l 0 0 l -0.06 0.15 a 0.56 0.56 0 0 0 0 0.12 l 0 0.14 a 0.68 0.68 0 0 0 0 0.14 v 0.28 a 0.59 0.59 0 0 0 0 0.13 l 0 0.14 a 0.5 0.5 0 0 0 0 0.13 l 0.06 0.14 l 0 0.06 l 0 0 a 1.19 1.19 0 0 0 0.16 0.23 l 0 0.0500001 l 0.23 0.2 c 5 3.27 6.08 9.64 6.31 11.52 c 0 0 0 0 0 0 a 1.37 1.37 0 0 0 0.13 0.45 l 0 0 a 1.23 1.23 0 0 0 0.26 0.37 h 0 a 1.41 1.41 0 0 0 0.36 0.24 l 0 0 l 0.27 0.08 h 0.35 l 0.28 -0.08 l 0 0 a 1.41 1.41 0 0 0 0.36 -0.24 h 0 a 1.23 1.23 0 0 0 0.26 -0.37 l 0 0 a 1.37 1.37 0 0 0 0.13 -0.45 a 0.08 0.08 0 0 0 0 0 c 0.23 -1.88 1.35 -8.25 6.31 -11.52 a 1.5 1.5 0 0 0 0.23 -0.2 a 0.1 0.1 0 0 0 0 -0.0500001 a 1.19 1.19 0 0 0 0.16 -0.23 l 0 0 l 0 -0.06 l 0.06 -0.14 a 0.5 0.5 0 0 0 0 -0.13 l 0 -0.14 a 0.59 0.59 0 0 0 0 -0.13 s 0 -0.1 0 -0.14 S 523.279 128.236 523.279 128.196 Z" class="cls-5"/><path id="svg_6" d="M 386.069 116.896 a 0.77 0.77 0 0 0 0 -0.15 a 0.75 0.75 0 0 0 0 -0.16 a 0.57 0.57 0 0 0 0 -0.14 a 0.87 0.87 0 0 0 -0.0700001 -0.17 l 0 -0.06 l 0 -0.06 a 1.3 1.3 0 0 1 -0.1 -0.15 l -0.1 -0.12 l -0.1 -0.1 l -0.13 -0.11 l -0.06 0 c -5.68 -3.74 -7 -11 -7.22 -13.19 c 0 0 0 -0.06 0 -0.09 a 0.8 0.8 0 0 0 0 -0.18 a 0.58 0.58 0 0 0 0 -0.14 l -0.06 -0.16 l -0.0700001 -0.13 l -0.09 -0.14 l -0.09 -0.1 l -0.12 -0.12 a 0.39 0.39 0 0 0 -0.1 -0.08 l -0.13 -0.1 l -0.13 -0.06 l -0.14 -0.06 l -0.15 0 l -0.09 0 h -0.39 l -0.09 0 l -0.15 0 l -0.15 0.06 l -0.11 0.06 l -0.15 0.1 l -0.09 0.0700001 l -0.13 0.14 l -0.0700001 0.09 a 1.3 1.3 0 0 0 -0.1 0.15 l -0.0700001 0.12 l -0.06 0.16 a 0.690001 0.690001 0 0 0 -0.0500001 0.13 a 1.29 1.29 0 0 0 0 0.19 a 0.29 0.29 0 0 0 0 0.09 c -0.26 2.15 -1.54 9.45 -7.22 13.19 l -0.06 0.06 l -0.12 0.09 l -0.12 0.12 a 0.44 0.44 0 0 0 -0.08 0.11 l -0.11 0.15 l 0 0.06 l 0 0.06 a 0.87 0.87 0 0 0 -0.0700001 0.17 a 0.57 0.57 0 0 0 0 0.14 a 0.75 0.75 0 0 0 0 0.16 a 0.77 0.77 0 0 0 0 0.15 a 0.92 0.92 0 0 0 0 0.16 a 0.81 0.81 0 0 0 0 0.16 a 0.78 0.78 0 0 0 0 0.16 a 0.940001 0.940001 0 0 0 0 0.16 a 0.74 0.74 0 0 0 0 0.14 a 1.22 1.22 0 0 0 0.0700001 0.17 l 0 0.06 l 0 0 a 1.51 1.51 0 0 0 0.18 0.26 l 0 0.06 a 1.38 1.38 0 0 0 0.26 0.22 c 5.68 3.75 7 11.05 7.22 13.2 c 0 0 0 0 0 0 a 2.15 2.15 0 0 0 0.15 0.51 l 0 0.06 a 1.83 1.83 0 0 0 0.31 0.42 h 0 a 1.62 1.62 0 0 0 0.41 0.27 l 0 0 a 1.17 1.17 0 0 0 0.32 0.09 l 0.19 0 h 0 l 0.19 0 a 1.17 1.17 0 0 0 0.32 -0.09 l 0 0 a 1.62 1.62 0 0 0 0.41 -0.27 h 0 a 1.83 1.83 0 0 0 0.31 -0.42 l 0 -0.06 a 2.15 2.15 0 0 0 0.15 -0.51 s 0 0 0 0 c 0.26 -2.15 1.54 -9.45 7.22 -13.2 a 1.38 1.38 0 0 0 0.26 -0.22 l 0.0500001 -0.06 a 1.51 1.51 0 0 0 0.18 -0.26 l 0 0 l 0 -0.06 a 1.22 1.22 0 0 0 0.0700001 -0.17 a 0.74 0.74 0 0 0 0 -0.14 a 0.940001 0.940001 0 0 0 0 -0.16 a 0.78 0.78 0 0 0 0 -0.16 a 0.81 0.81 0 0 0 0 -0.16 A 0.92 0.92 0 0 0 386.069 116.896 Z" class="cls-3"/><path id="svg_7" d="M 458.84 91.3855 a 0.68 0.68 0 0 0 0 -0.14 l 0 -0.15 s 0 -0.09 0 -0.13 a 1.11 1.11 0 0 0 -0.0700001 -0.16 s 0 0 0 0 a 0.1 0.1 0 0 0 0 0 a 0.42 0.42 0 0 0 -0.09 -0.14 a 0.44 0.44 0 0 0 -0.08 -0.11 l -0.1 -0.1 l -0.12 -0.1 l -0.0500001 0 c -5.23 -3.45 -6.42 -10.18 -6.65 -12.15 a 0.29 0.29 0 0 1 0 -0.09 a 1 1 0 0 0 0 -0.17 s 0 -0.08 0 -0.13 l -0.06 -0.14 a 0.75 0.75 0 0 0 -0.0700001 -0.12 l -0.08 -0.13 l -0.08 -0.09 l -0.11 -0.11 l -0.09 -0.08 l -0.13 -0.09 l -0.11 0 l -0.13 -0.06 l -0.14 0 L 450.36 76.7055 h -0.37 l -0.08 0 l -0.14 0 l -0.13 0.06 l -0.1 0 a 0.71 0.71 0 0 0 -0.14 0.1 l -0.08 0.06 l -0.12 0.12 l -0.0700001 0.09 l -0.09 0.14 l -0.06 0.11 a 0.690001 0.690001 0 0 0 -0.0700001 0.15 s 0 0.08 0 0.12 l 0 0.17 a 0.29 0.29 0 0 0 0 0.09 c -0.24 2 -1.42 8.7 -6.65 12.15 c 0 0 0 0 -0.06 0 a 0.48 0.48 0 0 0 -0.11 0.09 l -0.11 0.1 l -0.08 0.1 l -0.09 0.15 l 0 0 s 0 0 0 0 a 1 1 0 0 0 -0.06 0.16 s 0 0.08 -0.0500001 0.13 l 0 0.15 s 0 0.09 0 0.14 V 91.7055 s 0 0.09 0 0.14 l 0 0.15 s 0 0.08 0.0500001 0.13 a 0.940001 0.940001 0 0 0 0.06 0.15 s 0 0 0 0.06 l 0 0 a 1.24 1.24 0 0 0 0.17 0.23 l 0 0.06 a 1.64 1.64 0 0 0 0.25 0.21 c 5.23 3.45 6.41 10.17 6.65 12.15 c 0 0 0 0 0 0 a 1.43 1.43 0 0 0 0.14 0.47 l 0 0 a 1.36 1.36 0 0 0 0.27 0.39 h 0 a 1.19 1.19 0 0 0 0.38 0.25 l 0 0 a 1 1 0 0 0 0.29 0.08 l 0.18 0 h 0 l 0.18 0 a 1 1 0 0 0 0.29 -0.08 l 0 0 a 1.32 1.32 0 0 0 0.38 -0.25 h 0 a 1.62 1.62 0 0 0 0.28 -0.39 l 0 0 a 1.42 1.42 0 0 0 0.13 -0.47 l 0 0 c 0.23 -2 1.42 -8.7 6.65 -12.15 a 1.21 1.21 0 0 0 0.24 -0.21 l 0.0500001 -0.06 a 1.88 1.88 0 0 0 0.16 -0.23 l 0 0 s 0 0 0 -0.06 a 1 1 0 0 0 0.0700001 -0.15 c 0 -0.0500001 0 -0.09 0 -0.13 l 0 -0.15 a 0.78 0.78 0 0 0 0 -0.14 a 1.13 1.13 0 0 0 0 -0.3 Z" class="cls-6"/><path id="svg_8" d="M 661.74 147.706 a 0.88 0.88 0 0 0 0 -0.16 a 0.940001 0.940001 0 0 0 0 -0.16 a 0.74 0.74 0 0 0 0 -0.14 c 0 -0.06 0 -0.11 -0.0700001 -0.17 l 0 -0.06 a 0.21 0.21 0 0 0 0 -0.06 l -0.09 -0.15 L 661.359 146.706 l -0.11 -0.11 l -0.12 -0.11 l -0.06 0 c -5.68 -3.75 -7 -11.05 -7.22 -13.19 c 0 0 0 -0.0700001 0 -0.1 a 1.16 1.16 0 0 0 0 -0.18 a 0.78 0.78 0 0 0 0 -0.14 l -0.06 -0.16 l -0.0700001 -0.12 l -0.09 -0.14 l -0.09 -0.11 l -0.12 -0.12 l -0.1 -0.08 l -0.14 -0.1 l -0.12 -0.06 l -0.14 -0.06 l -0.15 0 l -0.09 0 h -0.39 l -0.1 0 l -0.14 0 l -0.15 0.0700001 l -0.11 0.0500001 l -0.15 0.11 l -0.09 0.0700001 l -0.13 0.13 l -0.0700001 0.09 a 1.3 1.3 0 0 0 -0.1 0.15 l -0.0700001 0.12 a 1.11 1.11 0 0 1 -0.0700001 0.16 c 0 0.0500001 0 0.09 0 0.14 a 1.16 1.16 0 0 0 0 0.18 a 0.3 0.3 0 0 0 0 0.1 c -0.26 2.14 -1.54 9.44 -7.22 13.19 l -0.06 0.0500001 l -0.12 0.09 L 643.359 146.706 a 0.76 0.76 0 0 0 -0.08 0.11 l -0.11 0.15 l 0 0.06 l 0 0.06 a 1.22 1.22 0 0 0 -0.0700001 0.17 a 0.74 0.74 0 0 0 0 0.14 a 0.940001 0.940001 0 0 0 0 0.16 a 0.88 0.88 0 0 0 0 0.16 a 0.81 0.81 0 0 0 0 0.16 a 0.92 0.92 0 0 0 0 0.16 a 0.77 0.77 0 0 0 0 0.15 a 1 1 0 0 0 0 0.17 a 0.65 0.65 0 0 0 0 0.13 a 0.87 0.87 0 0 0 0.0700001 0.17 l 0 0.06 s 0 0 0 0 a 1.2 1.2 0 0 0 0.18 0.26 l 0 0.0700001 a 1.88 1.88 0 0 0 0.26 0.22 c 5.68 3.74 7 11 7.22 13.19 c 0 0 0 0 0 0 a 2.23 2.23 0 0 0 0.15 0.52 l 0 0 a 1.43 1.43 0 0 0 0.31 0.42 h 0 a 1.42 1.42 0 0 0 0.41 0.28 l 0 0 a 1.68 1.68 0 0 0 0.32 0.09 h 0.39 a 1.68 1.68 0 0 0 0.32 -0.09 l 0 0 a 1.42 1.42 0 0 0 0.41 -0.28 h 0 a 1.63 1.63 0 0 0 0.31 -0.42 l 0 0 a 2.23 2.23 0 0 0 0.15 -0.52 s 0 0 0 0 c 0.26 -2.15 1.54 -9.45 7.22 -13.19 a 1.88 1.88 0 0 0 0.26 -0.22 l 0.0500001 -0.0700001 a 1.2 1.2 0 0 0 0.18 -0.26 s 0 0 0 0 l 0 -0.06 c 0 -0.0500001 0 -0.11 0.0700001 -0.17 a 0.65 0.65 0 0 0 0 -0.13 a 1 1 0 0 0 0 -0.17 a 0.77 0.77 0 0 0 0 -0.15 c 0 -0.06 0 -0.11 0 -0.16 S 661.74 147.776 661.74 147.706 Z" class="cls-3"/><path id="svg_9" d="M 731.359 106.176 a 0.59 0.59 0 0 0 0 -0.13 l 0 -0.15 a 0.56 0.56 0 0 0 0 -0.12 l -0.06 -0.15 s 0 0 0 0 l 0 -0.0500001 a 0.57 0.57 0 0 0 -0.08 -0.13 l -0.08 -0.1 l -0.1 -0.1 l -0.11 -0.09 l -0.0500001 0 c -5 -3.27 -6.08 -9.65 -6.31 -11.52 a 0.29 0.29 0 0 0 0 -0.09 a 0.4 0.4 0 0 0 0 -0.15 s 0 -0.09 0 -0.13 l -0.06 -0.13 l -0.06 -0.11 a 0.36 0.36 0 0 0 -0.08 -0.12 a 0.86 0.86 0 0 0 -0.0700001 -0.1 l -0.11 -0.1 l -0.08 -0.0700001 l -0.12 -0.09 l -0.11 0 l -0.12 0 l -0.14 0 l -0.0700001 0 h -0.35 l -0.08 0 l -0.13 0 l -0.13 0 l -0.09 0 l -0.13 0.09 l -0.08 0.06 l -0.11 0.12 l -0.0700001 0.08 l -0.09 0.13 l -0.0500001 0.11 a 0.59 0.59 0 0 0 -0.06 0.14 a 0.42 0.42 0 0 0 0 0.12 a 0.83 0.83 0 0 0 0 0.15 s 0 0.06 0 0.09 c -0.23 1.87 -1.35 8.25 -6.31 11.52 l -0.06 0 l -0.1 0.08 l -0.1 0.1 l -0.08 0.1 l -0.09 0.13 l 0 0.0500001 s 0 0 0 0 l -0.06 0.15 a 0.56 0.56 0 0 0 0 0.12 l 0 0.15 a 0.59 0.59 0 0 0 0 0.13 v 0.28 a 0.68 0.68 0 0 0 0 0.14 l 0 0.14 a 0.56 0.56 0 0 0 0 0.12 l 0.06 0.15 s 0 0 0 0 l 0 0 a 1.12 1.12 0 0 0 0.16 0.22 l 0 0.06 a 1.45 1.45 0 0 0 0.23 0.19 c 5 3.27 6.08 9.65 6.31 11.52 c 0 0 0 0 0 0 a 1.37 1.37 0 0 0 0.13 0.45 l 0 0 a 1.32 1.32 0 0 0 0.26 0.36 h 0 a 1.41 1.41 0 0 0 0.36 0.24 l 0 0 a 0.9 0.9 0 0 0 0.28 0.08 H 723.359 a 0.84 0.84 0 0 0 0.27 -0.08 a 0.0500001 0.0500001 0 0 0 0 0 a 1.41 1.41 0 0 0 0.36 -0.24 h 0 a 1.32 1.32 0 0 0 0.26 -0.36 l 0 0 a 1.37 1.37 0 0 0 0.13 -0.45 s 0 0 0 0 c 0.23 -1.87 1.35 -8.25 6.31 -11.52 a 2.11 2.11 0 0 0 0.23 -0.19 l 0 -0.06 a 1.12 1.12 0 0 0 0.16 -0.22 l 0 0 s 0 0 0 0 l 0.06 -0.15 a 0.56 0.56 0 0 0 0 -0.12 l 0 -0.14 a 0.68 0.68 0 0 0 0 -0.14 v -0.28 Z" class="cls-5"/><path id="svg_10" d="M 739.83 175.496 s 0 -0.06 0 -0.09 l 0 -0.09 a 0.24 0.24 0 0 0 0 -0.08 l 0 -0.1 l 0 0 l 0 0 l -0.0700001 -0.09 l 0 -0.06 l -0.0700001 -0.06 a 0.16 0.16 0 0 0 -0.08 -0.06 l 0 0 c -3.49 -2.13 -4.28 -6.27 -4.44 -7.49 a 0.43 0.43 0 0 0 0 -0.0500001 s 0 -0.0700001 0 -0.11 l 0 -0.08 l 0 -0.08 l 0 -0.08 l -0.0500001 -0.08 l -0.06 0 l -0.0700001 -0.0700001 l -0.06 0 l -0.08 -0.0500001 l -0.08 0 l -0.08 0 l -0.1 0 h -0.35 l -0.09 0 l -0.09 0 l -0.0700001 0 l -0.09 0.06 l -0.06 0 a 0.6 0.6 0 0 1 -0.08 0.08 l 0 0 l -0.06 0.09 l 0 0.06 l 0 0.1 a 0.19 0.19 0 0 0 0 0.0700001 l 0 0.11 a 0.43 0.43 0 0 0 0 0.0500001 c -0.16 1.22 -0.95 5.36 -4.43 7.49 l 0 0 l -0.08 0.0500001 a 0.46 0.46 0 0 1 -0.0700001 0.0700001 l 0 0.06 l -0.06 0.09 l 0 0 s 0 0 0 0 l 0 0.1 a 0.24 0.24 0 0 0 0 0.08 a 0.29 0.29 0 0 0 0 0.09 s 0 0.06 0 0.09 V 175.706 s 0 0.06 0 0.09 a 0.29 0.29 0 0 0 0 0.09 a 0.24 0.24 0 0 0 0 0.08 s 0 0.0700001 0 0.1 s 0 0 0 0 l 0 0 a 0.58 0.58 0 0 0 0.11 0.15 l 0 0 a 1 1 0 0 0 0.17 0.12 c 3.48 2.13 4.27 6.27 4.43 7.49 c 0 0 0 0 0 0 a 0.75 0.75 0 0 0 0.09 0.29 l 0 0 a 1.08 1.08 0 0 0 0.18 0.24 h 0 a 0.87 0.87 0 0 0 0.26 0.16 h 0 l 0.19 0.0500001 h 0.25 l 0.19 -0.0500001 h 0 a 1 1 0 0 0 0.25 -0.16 h 0 a 1.08 1.08 0 0 0 0.18 -0.24 l 0 0 a 0.75 0.75 0 0 0 0.09 -0.29 l 0 0 c 0.16 -1.22 0.95 -5.36 4.44 -7.49 a 1 1 0 0 0 0.16 -0.12 l 0 0 a 0.58 0.58 0 0 0 0.11 -0.15 l 0 0 l 0 0 s 0 -0.0700001 0 -0.1 a 0.24 0.24 0 0 0 0 -0.08 l 0 -0.09 s 0 -0.06 0 -0.09 v -0.18 Z" class="cls-4"/><path id="svg_11" d="M 823.14 132.976 a 0.77 0.77 0 0 1 0 -0.15 a 0.57 0.57 0 0 0 0 -0.14 a 0.5 0.5 0 0 0 0 -0.13 l -0.06 -0.16 a 0.17 0.17 0 0 1 0 -0.0500001 l 0 -0.06 l -0.09 -0.14 l -0.09 -0.1 a 0.47 0.47 0 0 0 -0.1 -0.1 a 0.52 0.52 0 0 0 -0.11 -0.1 l -0.06 0 c -5.23 -3.45 -6.41 -10.18 -6.65 -12.16 a 0.29 0.29 0 0 0 0 -0.09 l 0 -0.16 s 0 -0.09 0 -0.13 a 0.59 0.59 0 0 0 -0.06 -0.14 l -0.06 -0.12 l -0.09 -0.13 l -0.08 -0.09 L 815.359 118.706 l -0.09 -0.0700001 l -0.12 -0.09 l -0.11 -0.06 l -0.13 0 l -0.14 0 l -0.09 0 h -0.36 l -0.09 0 l -0.13 0 a 0.42 0.42 0 0 0 -0.14 0.06 l -0.1 0 l -0.14 0.09 l -0.08 0.0700001 l -0.12 0.12 l -0.0700001 0.09 l -0.09 0.14 l -0.06 0.1 l -0.06 0.15 a 0.930001 0.930001 0 0 0 0 0.13 a 0.85 0.85 0 0 0 0 0.17 a 0.24 0.24 0 0 1 0 0.08 c -0.24 2 -1.42 8.71 -6.65 12.16 l -0.06 0.0500001 l -0.11 0.08 l -0.1 0.11 l -0.08 0.1 l -0.1 0.14 l 0 0.06 a 0.08 0.08 0 0 0 0 0.0500001 a 0.77 0.77 0 0 0 -0.0700001 0.16 a 0.5 0.5 0 0 0 0 0.13 l 0 0.14 a 0.77 0.77 0 0 0 0 0.15 a 0.76 0.76 0 0 0 0 0.15 a 0.71 0.71 0 0 0 0 0.14 a 0.77 0.77 0 0 0 0 0.15 l 0 0.15 a 0.56 0.56 0 0 0 0 0.12 a 0.77 0.77 0 0 0 0.0700001 0.16 a 0.08 0.08 0 0 0 0 0.0500001 l 0 0 a 1 1 0 0 0 0.16 0.24 l 0.0500001 0.06 a 1.59 1.59 0 0 0 0.24 0.2 c 5.23 3.45 6.41 10.18 6.65 12.16 c 0 0 0 0 0 0 a 2 2 0 0 0 0.14 0.47 l 0 0 a 1.84 1.84 0 0 0 0.28 0.39 h 0 a 1.39 1.39 0 0 0 0.38 0.25 l 0 0 a 1 1 0 0 0 0.29 0.08 h 0.36 a 1 1 0 0 0 0.3 -0.08 l 0 0 a 1.39 1.39 0 0 0 0.38 -0.25 h 0 a 1.33 1.33 0 0 0 0.28 -0.39 l 0 0 a 1.59 1.59 0 0 0 0.14 -0.47 s 0 0 0 0 c 0.24 -2 1.42 -8.71 6.65 -12.16 a 1.59 1.59 0 0 0 0.24 -0.2 l 0 -0.06 a 1.46 1.46 0 0 0 0.17 -0.24 l 0 0 l 0 -0.0500001 l 0.06 -0.16 a 0.56 0.56 0 0 0 0 -0.12 a 0.83 0.83 0 0 0 0 -0.15 a 0.77 0.77 0 0 1 0 -0.15 v -0.29 Z" class="cls-6"/></g></g></g></svg>