<svg viewBox="0 0 1280 255" xmlns="http://www.w3.org/2000/svg"><path d="m1281 16v73.14a38.88 38.88 0 0 1 -38.89 38.86h-234.42a42.77 42.77 0 0 0 -38.86 24.3 74.12 74.12 0 0 1 -111.83 27.7 11.85 11.85 0 0 0 -13.72-.52 51.82 51.82 0 0 1 -28.64 8.52 4.25 4.25 0 0 0 -4.19 3.52 77.09 77.09 0 0 1 -138.64 31.16 10.67 10.67 0 0 0 -10.1-4.3 68.13 68.13 0 0 1 -73.32-44.57 11.17 11.17 0 0 0 -9.09-7.29h-.24a32.33 32.33 0 0 0 -26.43 8 55.08 55.08 0 0 1 -83.34-10.52 18.34 18.34 0 0 0 -16.2-8.1c-.91 0-1.82.06-2.74.06a63.27 63.27 0 0 1 -14.2-1.61 24.4 24.4 0 0 0 -21.89 5.8 56.08 56.08 0 0 1 -83.61-8.68 55.14 55.14 0 0 0 -44.74-23.47h-247a38.88 38.88 0 0 1 -38.91-38.86v-73.14z" fill="#04bea8"/><path d="m1281 0v73.14a38.88 38.88 0 0 1 -38.89 38.86h-234.42a42.77 42.77 0 0 0 -38.86 24.3 74.12 74.12 0 0 1 -111.83 27.7 11.85 11.85 0 0 0 -13.72-.52 51.82 51.82 0 0 1 -28.64 8.52 4.25 4.25 0 0 0 -4.19 3.52 77.09 77.09 0 0 1 -138.64 31.16 10.67 10.67 0 0 0 -10.1-4.3 68.13 68.13 0 0 1 -73.32-44.57 11.17 11.17 0 0 0 -9.09-7.29h-.24a32.33 32.33 0 0 0 -26.43 8 55.08 55.08 0 0 1 -83.34-10.52 18.34 18.34 0 0 0 -16.2-8.1c-.91 0-1.82.06-2.74.06a63.27 63.27 0 0 1 -14.2-1.61 24.4 24.4 0 0 0 -21.89 5.8 56.08 56.08 0 0 1 -83.61-8.68 55.14 55.14 0 0 0 -44.74-23.47h-247a38.88 38.88 0 0 1 -38.91-38.86v-73.14z" fill="#fff"/><path d="m911.12 117.19s0-.1 0-.15a.75.75 0 0 0 0-.16s0-.1 0-.14 0-.12-.07-.17v-.06a.21.21 0 0 0 0-.06 1.3 1.3 0 0 0 -.1-.15l-.09-.12-.11-.1-.12-.11h-.06c-5.68-3.74-7-11-7.22-13.19a.29.29 0 0 1 0-.09.8.8 0 0 0 0-.18.58.58 0 0 0 0-.14l-.06-.16-.07-.13-.1-.14-.08-.1-.12-.12a.39.39 0 0 0 -.1-.08.71.71 0 0 0 -.14-.1l-.12-.06-.14-.06h-.15-.09-.39-.1-.14l-.15.06-.11.06-.15.1-.09.07-.13.14-.07.09a1.3 1.3 0 0 0 -.1.15.75.75 0 0 0 -.07.12s0 .1-.07.16v.13a1.29 1.29 0 0 0 0 .19.29.29 0 0 0 0 .09c-.26 2.15-1.54 9.45-7.22 13.19l-.07.06-.11.09-.12.12a.44.44 0 0 0 -.08.11l-.11.15v.06s0 0 0 .06a.87.87 0 0 0 -.07.17s0 .09 0 .14v.16a.77.77 0 0 0 0 .15.92.92 0 0 0 0 .16.81.81 0 0 0 0 .16.78.78 0 0 0 0 .16v.16.14a1.22 1.22 0 0 0 .07.17s0 0 0 .06a2.48 2.48 0 0 0 .19.26v.06a1.38 1.38 0 0 0 .26.22c5.68 3.75 7 11.05 7.22 13.2a2.15 2.15 0 0 0 .15.51v.06a1.79 1.79 0 0 0 .3.42 1.62 1.62 0 0 0 .41.27 1.08 1.08 0 0 0 .32.09h.19.19a1.17 1.17 0 0 0 .32-.09 1.62 1.62 0 0 0 .41-.27 1.79 1.79 0 0 0 .3-.42v-.06a2.15 2.15 0 0 0 .15-.51s0 0 0 0c.26-2.15 1.54-9.45 7.22-13.2a1.38 1.38 0 0 0 .26-.22l.05-.06a1.51 1.51 0 0 0 .18-.26v-.06c0-.06 0-.11.07-.17s0-.09 0-.14a.94.94 0 0 0 0-.16s0-.1 0-.16v-.32z" fill="#88cfc3"/><path d="m592.6 112.65s0-.06 0-.09a.3.3 0 0 0 0-.1.32.32 0 0 0 0-.09.3.3 0 0 0 0-.1s0 0 0 0l-.06-.09-.06-.07-.06-.07-.08-.06c-3.48-2.3-4.27-6.78-4.43-8.1 0 0 0 0 0-.06v-.11a.32.32 0 0 0 0-.09.36.36 0 0 0 0-.09.2.2 0 0 0 0-.08l-.06-.09v-.06l-.07-.08h-.06l-.09-.06h-.07-.09-.09-.3-.05-.09-.1-.06a.22.22 0 0 0 -.09.07h-.06l-.08.08v.06l-.06.09a.25.25 0 0 1 0 .07 1 1 0 0 1 0 .1v.09s0 .07 0 .11 0 0 0 .06c-.16 1.32-.95 5.8-4.44 8.1l-.07.06-.07.07v.07l-.07.09a.05.05 0 0 1 0 0s0 0 0 0a.93.93 0 0 0 0 .1v.09a.44.44 0 0 1 0 .1s0 .06 0 .09v.2s0 .06 0 .09a.44.44 0 0 1 0 .1v.09s0 .07 0 .1a.06.06 0 0 0 0 0 .91.91 0 0 0 .11.16 1.07 1.07 0 0 0 .16.14c3.49 2.3 4.28 6.78 4.44 8.1a0 0 0 0 0 0 0 .85.85 0 0 0 .09.31s0 0 0 0a1.14 1.14 0 0 0 .18.25 1 1 0 0 0 .25.17.6.6 0 0 0 .19.06h.25a.7.7 0 0 0 .19-.06.9.9 0 0 0 .26-.17.92.92 0 0 0 .19-.25s0 0 0 0a.85.85 0 0 0 .09-.31s0 0 0 0c.16-1.32.95-5.8 4.43-8.1l.17-.14a.91.91 0 0 0 .11-.16s0 0 0 0a.42.42 0 0 0 0-.1.32.32 0 0 0 0-.09.3.3 0 0 0 0-.1s0-.06 0-.09v-.2z" fill="#4fc2f8"/><path d="m523.92 128.49a.68.68 0 0 0 0-.14v-.14a.56.56 0 0 0 0-.12l-.06-.15-.09-.13-.08-.1a.47.47 0 0 0 -.1-.1l-.11-.09h-.05c-5-3.27-6.08-9.65-6.31-11.53 0 0 0 0 0-.08a.94.94 0 0 0 0-.16.56.56 0 0 0 0-.12.52.52 0 0 0 -.06-.13.67.67 0 0 0 -.06-.12l-.08-.12-.07-.09-.11-.11-.08-.07-.12-.08h-.11l-.12-.06h-.13-.08-.35-.08-.13l-.13.06h-.09l-.13.09-.08.06-.11.12-.07.08a.57.57 0 0 0 -.08.13l-.06.1-.06.14a.56.56 0 0 0 0 .12.45.45 0 0 0 0 .16.31.31 0 0 0 0 .08c-.23 1.88-1.35 8.26-6.31 11.53h-.06l-.1.09-.1.1-.07.09a.55.55 0 0 0 -.09.14l-.06.15a.56.56 0 0 0 0 .12v.14a.68.68 0 0 0 0 .14v.28a.59.59 0 0 0 0 .13v.14a.5.5 0 0 0 0 .13l.06.14v.06a1.19 1.19 0 0 0 .16.23v.05l.23.2c5 3.27 6.08 9.64 6.31 11.52a1.37 1.37 0 0 0 .13.45 1.23 1.23 0 0 0 .26.37 1.41 1.41 0 0 0 .36.24l.27.08h.35l.28-.08a1.41 1.41 0 0 0 .36-.24 1.23 1.23 0 0 0 .26-.37 1.37 1.37 0 0 0 .13-.45.08.08 0 0 0 0 0c.23-1.88 1.35-8.25 6.31-11.52a1.5 1.5 0 0 0 .23-.2.1.1 0 0 0 0-.05 1.19 1.19 0 0 0 .16-.23v-.06l.06-.14a.5.5 0 0 0 0-.13v-.14a.59.59 0 0 0 0-.13c0-.05 0-.1 0-.14s.06-.1.06-.14z" fill="#4286f3"/><path d="m386.71 117.19a.77.77 0 0 0 0-.15.75.75 0 0 0 0-.16.57.57 0 0 0 0-.14.87.87 0 0 0 -.07-.17v-.06-.06a1.3 1.3 0 0 1 -.1-.15l-.1-.12-.1-.1-.13-.11h-.06c-5.68-3.74-7-11-7.22-13.19 0 0 0-.06 0-.09a.8.8 0 0 0 0-.18.58.58 0 0 0 0-.14l-.06-.16-.07-.13-.09-.14-.09-.1-.12-.12a.39.39 0 0 0 -.1-.08l-.13-.1-.13-.06-.14-.06h-.15-.09-.39-.09-.15l-.15.06-.11.06-.15.1-.09.07-.13.14-.07.09a1.3 1.3 0 0 0 -.1.15l-.07.12-.06.16a.69.69 0 0 0 -.05.13 1.29 1.29 0 0 0 0 .19.29.29 0 0 0 0 .09c-.26 2.15-1.54 9.45-7.22 13.19l-.06.06-.12.09-.12.12a.44.44 0 0 0 -.08.11l-.11.15v.06.06a.87.87 0 0 0 -.07.17.57.57 0 0 0 0 .14.75.75 0 0 0 0 .16.77.77 0 0 0 0 .15.92.92 0 0 0 0 .16.81.81 0 0 0 0 .16.78.78 0 0 0 0 .16.94.94 0 0 0 0 .16.74.74 0 0 0 0 .14 1.22 1.22 0 0 0 .07.17v.06a1.51 1.51 0 0 0 .18.26v.06a1.38 1.38 0 0 0 .26.22c5.68 3.75 7 11.05 7.22 13.2a2.15 2.15 0 0 0 .15.51v.06a1.83 1.83 0 0 0 .31.42 1.62 1.62 0 0 0 .41.27 1.17 1.17 0 0 0 .32.09h.19.19a1.17 1.17 0 0 0 .32-.09 1.62 1.62 0 0 0 .41-.27 1.83 1.83 0 0 0 .31-.42v-.06a2.15 2.15 0 0 0 .15-.51s0 0 0 0c.26-2.15 1.54-9.45 7.22-13.2a1.38 1.38 0 0 0 .26-.22l.05-.06a1.51 1.51 0 0 0 .18-.26v-.06a1.22 1.22 0 0 0 .07-.17.74.74 0 0 0 0-.14.94.94 0 0 0 0-.16.78.78 0 0 0 0-.16.81.81 0 0 0 0-.16.92.92 0 0 0 .07-.21z" fill="#88cfc3"/><path d="m459.48 91.68a.68.68 0 0 0 0-.14v-.15s0-.09 0-.13a1.11 1.11 0 0 0 -.07-.16s0 0 0 0a.1.1 0 0 0 0 0 .42.42 0 0 0 -.09-.14.44.44 0 0 0 -.08-.11l-.1-.1-.12-.1h-.05c-5.23-3.45-6.42-10.18-6.65-12.15a.29.29 0 0 1 0-.09 1 1 0 0 0 0-.17s0-.08 0-.13l-.06-.14a.75.75 0 0 0 -.07-.12l-.08-.13-.08-.09-.11-.11-.09-.08-.13-.09h-.11l-.13-.06h-.14l-.32-.29h-.37-.08-.14l-.13.06h-.1a.71.71 0 0 0 -.14.1l-.08.06-.12.12-.07.09-.09.14-.06.11a.69.69 0 0 0 -.07.15s0 .08 0 .12v.17a.29.29 0 0 0 0 .09c-.24 2-1.42 8.7-6.65 12.15 0 0 0 0-.06 0a.48.48 0 0 0 -.11.09l-.11.1-.08.1-.09.15s0 0 0 0a1 1 0 0 0 -.06.16s0 .08-.05.13v.15s0 .09 0 .14v.62s0 .09 0 .14v.15s0 .08.05.13a.94.94 0 0 0 .06.15s0 0 0 .06a1.24 1.24 0 0 0 .17.23v.06a1.64 1.64 0 0 0 .25.21c5.23 3.45 6.41 10.17 6.65 12.15a1.43 1.43 0 0 0 .14.47 1.36 1.36 0 0 0 .27.39 1.19 1.19 0 0 0 .38.25 1 1 0 0 0 .29.08h.18.18a1 1 0 0 0 .29-.08 1.32 1.32 0 0 0 .38-.25 1.62 1.62 0 0 0 .28-.39 1.42 1.42 0 0 0 .13-.47c.23-2 1.42-8.7 6.65-12.15a1.21 1.21 0 0 0 .24-.21l.05-.06a1.88 1.88 0 0 0 .16-.23s0 0 0-.06a1 1 0 0 0 .07-.15c0-.05 0-.09 0-.13v-.15a.78.78 0 0 0 0-.14 1.13 1.13 0 0 0 0-.3z" fill="#04bea8"/><path d="m662.38 148a.88.88 0 0 0 0-.16.94.94 0 0 0 0-.16.74.74 0 0 0 0-.14c0-.06 0-.11-.07-.17v-.06a.21.21 0 0 0 0-.06l-.09-.15-.22-.1-.11-.11-.12-.11h-.06c-5.68-3.75-7-11.05-7.22-13.19 0 0 0-.07 0-.1a1.16 1.16 0 0 0 0-.18.78.78 0 0 0 0-.14l-.06-.16-.07-.12-.09-.14-.09-.11-.12-.12-.1-.08-.14-.1-.12-.06-.14-.06h-.15-.09-.39-.1-.14l-.15.07-.11.05-.15.11-.09.07-.13.13-.07.09a1.3 1.3 0 0 0 -.1.15l-.07.12a1.11 1.11 0 0 1 -.07.16v.14a1.16 1.16 0 0 0 0 .18.3.3 0 0 0 0 .1c-.26 2.14-1.54 9.44-7.22 13.19l-.06.05-.12.09-.35.08a.76.76 0 0 0 -.08.11l-.11.15v.06.06a1.22 1.22 0 0 0 -.07.17.74.74 0 0 0 0 .14.94.94 0 0 0 0 .16.88.88 0 0 0 0 .16.81.81 0 0 0 0 .16.92.92 0 0 0 0 .16.77.77 0 0 0 0 .15 1 1 0 0 0 0 .17.65.65 0 0 0 0 .13.87.87 0 0 0 .07.17v.06s0 0 0 0a1.2 1.2 0 0 0 .18.26v.07a1.88 1.88 0 0 0 .26.22c5.68 3.74 7 11 7.22 13.19a2.23 2.23 0 0 0 .15.52 1.43 1.43 0 0 0 .31.42 1.42 1.42 0 0 0 .41.28 1.68 1.68 0 0 0 .32.09h.39a1.68 1.68 0 0 0 .32-.09 1.42 1.42 0 0 0 .41-.28 1.63 1.63 0 0 0 .31-.42 2.23 2.23 0 0 0 .15-.52s0 0 0 0c.26-2.15 1.54-9.45 7.22-13.19a1.88 1.88 0 0 0 .26-.22l.05-.07a1.2 1.2 0 0 0 .18-.26s0 0 0 0v-.06c0-.05 0-.11.07-.17a.65.65 0 0 0 0-.13 1 1 0 0 0 0-.17.77.77 0 0 0 0-.15c0-.06 0-.11 0-.16s.36-.1.36-.17z" fill="#88cfc3"/><path d="m732 106.47a.59.59 0 0 0 0-.13v-.15a.56.56 0 0 0 0-.12l-.06-.15s0 0 0 0v-.05a.57.57 0 0 0 -.08-.13l-.08-.1-.1-.1-.11-.09h-.05c-5-3.27-6.08-9.65-6.31-11.52a.29.29 0 0 0 0-.09.4.4 0 0 0 0-.15s0-.09 0-.13l-.06-.13-.06-.11a.36.36 0 0 0 -.08-.12.86.86 0 0 0 -.07-.1l-.11-.1-.08-.07-.12-.09h-.11-.12-.14-.07-.35-.08-.13-.13-.09l-.13.09-.08.06-.11.12-.07.08-.09.13-.05.11a.59.59 0 0 0 -.06.14.42.42 0 0 0 0 .12.83.83 0 0 0 0 .15s0 .06 0 .09c-.23 1.87-1.35 8.25-6.31 11.52h-.06l-.1.08-.1.1-.08.1-.09.13v.05s0 0 0 0l-.06.15a.56.56 0 0 0 0 .12v.15a.59.59 0 0 0 0 .13v.28a.68.68 0 0 0 0 .14v.14a.56.56 0 0 0 0 .12l.06.15s0 0 0 0a1.12 1.12 0 0 0 .16.22v.06a1.45 1.45 0 0 0 .23.19c5 3.27 6.08 9.65 6.31 11.52a1.37 1.37 0 0 0 .13.45 1.32 1.32 0 0 0 .26.36 1.41 1.41 0 0 0 .36.24.9.9 0 0 0 .28.08h.19a.84.84 0 0 0 .27-.08.05.05 0 0 0 0 0 1.41 1.41 0 0 0 .36-.24 1.32 1.32 0 0 0 .26-.36 1.37 1.37 0 0 0 .13-.45s0 0 0 0c.23-1.87 1.35-8.25 6.31-11.52a2.11 2.11 0 0 0 .23-.19v-.06a1.12 1.12 0 0 0 .16-.22s0 0 0 0l.06-.15a.56.56 0 0 0 0-.12v-.14a.68.68 0 0 0 0-.14v-.28z" fill="#4286f3"/><path d="m740.47 175.79s0-.06 0-.09v-.09a.24.24 0 0 0 0-.08v-.1a0 0 0 0 0 0 0l-.07-.09v-.06l-.07-.06a.16.16 0 0 0 -.08-.06c-3.49-2.13-4.28-6.27-4.44-7.49a.43.43 0 0 0 0-.05s0-.07 0-.11v-.08-.08-.08l-.05-.08h-.06l-.07-.07h-.06l-.08-.05h-.08-.08-.1-.35-.09-.09-.07l-.09.06h-.06a.6.6 0 0 1 -.08.08l-.06.09v.06.1a.19.19 0 0 0 0 .07v.11a.43.43 0 0 0 0 .05c-.16 1.22-.95 5.36-4.43 7.49l-.08.05a.46.46 0 0 1 -.07.07v.06l-.06.09s0 0 0 0v.1a.24.24 0 0 0 0 .08.29.29 0 0 0 0 .09s0 .06 0 .09v.19s0 .06 0 .09a.29.29 0 0 0 0 .09.24.24 0 0 0 0 .08s0 .07 0 .1 0 0 0 0a.58.58 0 0 0 .11.15 1 1 0 0 0 .17.12c3.48 2.13 4.27 6.27 4.43 7.49a.75.75 0 0 0 .09.29 1.08 1.08 0 0 0 .18.24.87.87 0 0 0 .26.16l.19.05h.25l.19-.05a1 1 0 0 0 .25-.16 1.08 1.08 0 0 0 .18-.24.75.75 0 0 0 .09-.29 0 0 0 0 0 0 0c.16-1.22.95-5.36 4.44-7.49a1 1 0 0 0 .16-.12.58.58 0 0 0 .11-.15 0 0 0 0 0 0 0s0-.07 0-.1a.24.24 0 0 0 0-.08v-.09s0-.06 0-.09v-.18z" fill="#4fc2f8"/><path d="m823.78 133.27a.77.77 0 0 1 0-.15.57.57 0 0 0 0-.14.5.5 0 0 0 0-.13l-.06-.16a.17.17 0 0 1 0-.05v-.06l-.09-.14-.09-.1a.47.47 0 0 0 -.1-.1.52.52 0 0 0 -.11-.1h-.06c-5.23-3.45-6.41-10.18-6.65-12.16a.29.29 0 0 0 0-.09v-.16s0-.09 0-.13a.59.59 0 0 0 -.06-.14l-.06-.12-.09-.13-.08-.09-.33-.12-.09-.07-.12-.09-.11-.06h-.13-.14-.09-.36-.09-.13a.42.42 0 0 0 -.14.06h-.1l-.14.09-.08.07-.12.12-.07.09-.09.14-.06.1-.06.15a.93.93 0 0 0 0 .13.85.85 0 0 0 0 .17.24.24 0 0 1 0 .08c-.24 2-1.42 8.71-6.65 12.16l-.06.05-.11.08-.1.11-.08.1-.1.14v.06a.08.08 0 0 0 0 .05.77.77 0 0 0 -.07.16.5.5 0 0 0 0 .13v.14a.77.77 0 0 0 0 .15.76.76 0 0 0 0 .15.71.71 0 0 0 0 .14.77.77 0 0 0 0 .15v.15a.56.56 0 0 0 0 .12.77.77 0 0 0 .07.16.08.08 0 0 0 0 .05 1 1 0 0 0 .16.24l.05.06a1.59 1.59 0 0 0 .24.2c5.23 3.45 6.41 10.18 6.65 12.16a2 2 0 0 0 .14.47 1.84 1.84 0 0 0 .28.39 1.39 1.39 0 0 0 .38.25 1 1 0 0 0 .29.08h.36a1 1 0 0 0 .3-.08 1.39 1.39 0 0 0 .38-.25 1.33 1.33 0 0 0 .28-.39 1.59 1.59 0 0 0 .14-.47s0 0 0 0c.24-2 1.42-8.71 6.65-12.16a1.59 1.59 0 0 0 .24-.2v-.06a1.46 1.46 0 0 0 .17-.24v-.05l.06-.16a.56.56 0 0 0 0-.12.83.83 0 0 0 0-.15.77.77 0 0 1 0-.15v-.29z" fill="#04bea8"/></svg>