<svg xmlns="http://www.w3.org/2000/svg" viewBox="0 0 1280 291"><defs><style>.cls-1{fill:#04bea8}.cls-2{fill:#fff}.cls-3{fill:#88cfc3}.cls-4{fill:#4fc2f8}.cls-5{fill:#4286f3}</style></defs><title>Transition</title><g id="Transitions"><g id="Stars_2-2" data-name="Stars 2"><path d="M1280,14H0V179s47,77,117,77a121,121,0,0,0,107.41-65.26,17.32,17.32,0,0,1,26.39-5.53,104.18,104.18,0,0,0,93.45,20.18,17.38,17.38,0,0,1,19.16,7.42,85,85,0,0,0,146.92-6.45A17.44,17.44,0,0,1,537,201a116.56,116.56,0,0,0,76,28q1.31,0,2.61,0a17.59,17.59,0,0,1,14.94,7.6,123,123,0,0,0,166,35.14,17.45,17.45,0,0,1,20.3,1.32,79,79,0,0,0,125.82-38.38,17.34,17.34,0,0,1,12-11.63q3-.84,5.91-1.91A17.46,17.46,0,0,1,980.51,227a91,91,0,0,0,156.29-19.47,17.37,17.37,0,0,1,24-8.78A93,93,0,0,0,1200,209c65,3,80-32,80-32Z" class="cls-1"/><path d="M0,0V161s47,77,117,77a121,121,0,0,0,107.41-65.26,17.32,17.32,0,0,1,26.39-5.53,104.18,104.18,0,0,0,93.45,20.18,17.38,17.38,0,0,1,19.16,7.42,85,85,0,0,0,146.92-6.45A17.44,17.44,0,0,1,537,183a116.56,116.56,0,0,0,76,28q1.31,0,2.61,0a17.59,17.59,0,0,1,14.94,7.6,123,123,0,0,0,166,35.14,17.45,17.45,0,0,1,20.3,1.32,79,79,0,0,0,125.82-38.38,17.34,17.34,0,0,1,12-11.63q3-.84,5.91-1.91A17.46,17.46,0,0,1,980.51,209a91,91,0,0,0,156.29-19.47,17.37,17.37,0,0,1,24-8.78A93,93,0,0,0,1200,191c65,3,80-32,80-32V0Z" class="cls-2"/><g id="Stars-2" data-name="Stars"><path d="M1221.3,111.12l0-.18a1.29,1.29,0,0,0,0-.19,1,1,0,0,0,0-.16,1.67,1.67,0,0,0-.08-.2l0-.07,0-.06a1.08,1.08,0,0,0-.11-.18l-.11-.13-.13-.13-.14-.12-.07-.06c-6.61-4.36-8.1-12.85-8.4-15.35l0-.11a1.55,1.55,0,0,0,0-.21l-.06-.16a1.34,1.34,0,0,0-.07-.18l-.09-.15a.86.86,0,0,0-.1-.16,1.27,1.27,0,0,0-.1-.12l-.14-.15-.11-.09-.16-.11-.14-.07-.17-.07-.18,0-.1,0h-.46l-.11,0-.17,0-.17.07-.13.07a.66.66,0,0,0-.17.12.39.39,0,0,0-.1.08l-.15.15-.09.11-.12.18-.07.13a1.54,1.54,0,0,0-.08.19l-.06.16a1.55,1.55,0,0,0,0,.21l0,.11c-.3,2.5-1.79,11-8.4,15.35l-.07.06-.14.11-.13.14a.64.64,0,0,0-.1.13.57.57,0,0,0-.12.18l-.05.06s0,.05,0,.07l-.08.2a1,1,0,0,0,0,.16,1.29,1.29,0,0,0,0,.19l0,.18v.37l0,.18a1.06,1.06,0,0,0,0,.19.75.75,0,0,0,0,.16c0,.07,0,.14.08.2a.36.36,0,0,1,0,.07l0,0a1.61,1.61,0,0,0,.21.3l.06.07a1.48,1.48,0,0,0,.3.26c6.61,4.36,8.1,12.85,8.4,15.35,0,0,0,0,0,.05a2.31,2.31,0,0,0,.17.6l0,.06a1.75,1.75,0,0,0,.35.49h0a1.58,1.58,0,0,0,.48.33l0,0a1.56,1.56,0,0,0,.37.1l.23,0h0l.22,0a1.56,1.56,0,0,0,.37-.1l0,0a1.58,1.58,0,0,0,.48-.33h0a1.75,1.75,0,0,0,.35-.49l0-.06a2,2,0,0,0,.17-.6l0-.05c.3-2.5,1.79-11,8.4-15.35a1.48,1.48,0,0,0,.3-.26s0,0,.06-.07a1.61,1.61,0,0,0,.21-.3l0,0,0-.07a1.19,1.19,0,0,0,.08-.2.75.75,0,0,0,0-.16,1.06,1.06,0,0,0,0-.19l0-.18v-.37Z" class="cls-3"/><path d="M622.54,93.49a1,1,0,0,1,0-.16c0-.06,0-.11,0-.17a1.21,1.21,0,0,0-.05-.14.87.87,0,0,0-.07-.17s0,0,0-.06l0-.06c0-.06-.07-.11-.1-.16l-.1-.11a.57.57,0,0,0-.11-.11.69.69,0,0,0-.13-.11l-.06,0c-5.8-3.82-7.11-11.28-7.37-13.47,0,0,0-.06,0-.1a1.16,1.16,0,0,0,0-.18.58.58,0,0,0,0-.14l-.06-.16-.08-.13-.09-.14-.09-.11-.12-.13-.1-.08-.14-.1-.12-.06-.15-.06-.15,0-.09,0h-.41l-.09,0-.15,0-.15.06-.12.06-.15.11-.09.07-.13.14-.08.09-.1.15-.06.12a1.22,1.22,0,0,0-.07.17.78.78,0,0,0,0,.14,1.16,1.16,0,0,0,0,.18.44.44,0,0,0,0,.1c-.27,2.19-1.58,9.65-7.37,13.47l-.07,0-.12.1-.12.12-.09.11c0,.05-.07.1-.1.16l0,.06s0,0,0,.06,0,.11-.08.17,0,.1,0,.14a1,1,0,0,0,0,.17.78.78,0,0,0,0,.16v.32a.78.78,0,0,0,0,.16,1,1,0,0,0,0,.17s0,.09,0,.14.05.12.08.17,0,0,0,.06l0,0a1.57,1.57,0,0,0,.19.26l0,.06a1.18,1.18,0,0,0,.27.23c5.79,3.83,7.1,11.28,7.37,13.47,0,0,0,0,0,0a2.18,2.18,0,0,0,.15.53l0,.06a1.79,1.79,0,0,0,.3.42h0a1.37,1.37,0,0,0,.42.29h0a1.19,1.19,0,0,0,.32.1h.41a1.19,1.19,0,0,0,.32-.1h0a1.5,1.5,0,0,0,.42-.29h0a1.58,1.58,0,0,0,.31-.42l0-.06a1.82,1.82,0,0,0,.16-.53s0,0,0,0c.26-2.19,1.57-9.64,7.37-13.47a1.18,1.18,0,0,0,.27-.23l0-.06a2.48,2.48,0,0,0,.19-.26l0,0s0,0,0-.06a.87.87,0,0,0,.07-.17.78.78,0,0,0,.05-.14c0-.06,0-.11,0-.17a1,1,0,0,1,0-.16v-.32Z" class="cls-4"/><path d="M448.38,147.81a1.66,1.66,0,0,0,0-.22,2,2,0,0,0-.05-.24,1.59,1.59,0,0,0-.07-.2,2.6,2.6,0,0,0-.1-.25l0-.08-.06-.09-.14-.22-.14-.16-.16-.16a.84.84,0,0,0-.18-.15l-.08-.07c-8.25-5.44-10.11-16-10.49-19.16a.7.7,0,0,0,0-.14,2.38,2.38,0,0,0-.05-.26c0-.07,0-.13-.07-.2a2.29,2.29,0,0,0-.1-.23,1.62,1.62,0,0,0-.1-.18,1.37,1.37,0,0,0-.13-.2.64.64,0,0,0-.13-.15,1,1,0,0,0-.17-.18l-.14-.12-.2-.14-.18-.09-.2-.09-.22,0-.13,0h-.58l-.13,0-.21,0-.22.1-.16.08a.8.8,0,0,0-.21.15l-.13.1c-.07.06-.13.13-.19.19a1.34,1.34,0,0,0-.11.14,1.64,1.64,0,0,0-.14.22,1,1,0,0,0-.1.17,1.33,1.33,0,0,0-.1.24,1.06,1.06,0,0,0-.06.19,1.31,1.31,0,0,0-.06.27.5.5,0,0,0,0,.13c-.38,3.12-2.24,13.72-10.48,19.16l-.1.07-.17.14-.17.17-.12.16a1.7,1.7,0,0,0-.15.22l-.06.09,0,.08a2.6,2.6,0,0,0-.1.25,1.59,1.59,0,0,0-.07.2,2,2,0,0,0-.05.24l0,.22a1.85,1.85,0,0,0,0,.23,1.93,1.93,0,0,0,0,.24l0,.22a2,2,0,0,0,.05.24,1.59,1.59,0,0,0,.07.2,2.6,2.6,0,0,0,.1.25l0,.08.05.06a2,2,0,0,0,.26.38l.07.09a2,2,0,0,0,.39.32c8.24,5.44,10.1,16,10.48,19.16a.14.14,0,0,0,0,.06,2.35,2.35,0,0,0,.22.74.59.59,0,0,0,0,.08,2.27,2.27,0,0,0,.44.61l0,0a2.17,2.17,0,0,0,.6.4l0,0a2.42,2.42,0,0,0,.46.13l.28,0h0l.28,0a2.42,2.42,0,0,0,.46-.13l.05,0a2,2,0,0,0,.6-.4l0,0a2.27,2.27,0,0,0,.44-.61.56.56,0,0,0,.05-.08,2.33,2.33,0,0,0,.21-.74.14.14,0,0,0,0-.06c.38-3.12,2.24-13.72,10.49-19.16a2.3,2.3,0,0,0,.38-.32l.07-.09a2,2,0,0,0,.26-.38l.05-.06,0-.08a2.6,2.6,0,0,0,.1-.25,1.59,1.59,0,0,0,.07-.2,2,2,0,0,0,.05-.24,1.66,1.66,0,0,0,0-.22,1.93,1.93,0,0,0,0-.24A1.85,1.85,0,0,0,448.38,147.81Z" class="cls-5"/><path d="M133.31,117a2.34,2.34,0,0,0,0-.26,1.31,1.31,0,0,0-.06-.27,2,2,0,0,0-.07-.23A2.36,2.36,0,0,0,133,116a.42.42,0,0,0,0-.1l-.06-.1-.17-.25-.15-.19-.18-.18-.21-.17a.7.7,0,0,0-.1-.08c-9.44-6.23-11.57-18.36-12-21.93a1.1,1.1,0,0,1,0-.16c0-.1,0-.2-.07-.3a2.09,2.09,0,0,0-.08-.23,1.19,1.19,0,0,0-.11-.26,2.12,2.12,0,0,0-.11-.21,1.88,1.88,0,0,0-.16-.23,1.15,1.15,0,0,0-.14-.17,2,2,0,0,0-.2-.21l-.16-.13a1.88,1.88,0,0,0-.23-.16l-.2-.1a1.15,1.15,0,0,0-.23-.1l-.26-.07-.14,0h-.66l-.15,0-.25.06-.24.11-.19.1a1,1,0,0,0-.24.17.57.57,0,0,0-.15.12,1.1,1.1,0,0,0-.21.22l-.13.15a2.2,2.2,0,0,0-.17.25l-.11.19c0,.09-.07.18-.11.28s0,.14-.08.22l-.06.3a1.1,1.1,0,0,0,0,.16c-.43,3.57-2.57,15.7-12,21.93a.87.87,0,0,1-.1.08l-.19.16c-.07.07-.14.13-.2.2a1.24,1.24,0,0,0-.14.18l-.17.25a.86.86,0,0,1-.07.1.42.42,0,0,1,0,.1,2.33,2.33,0,0,0-.11.28,2.09,2.09,0,0,0-.08.23l-.06.27a2.3,2.3,0,0,0,0,.26,2.44,2.44,0,0,0,0,.27,2.35,2.35,0,0,0,0,.26,2.3,2.3,0,0,0,0,.26l.06.27a2.09,2.09,0,0,0,.08.23,2.33,2.33,0,0,0,.11.28l0,.1,0,.07a3.3,3.3,0,0,0,.3.43l.09.1a2.16,2.16,0,0,0,.43.37c9.44,6.23,11.58,18.36,12,21.93a.14.14,0,0,0,0,.07,2.84,2.84,0,0,0,.25.86.41.41,0,0,0,0,.09,2.65,2.65,0,0,0,.5.69l0,0a2.6,2.6,0,0,0,.69.46l.06,0a2.31,2.31,0,0,0,.53.15,1.73,1.73,0,0,0,.32,0h0a1.84,1.84,0,0,0,.33,0,2.23,2.23,0,0,0,.52-.15l.07,0a2.4,2.4,0,0,0,.68-.46s0,0,0,0a2.69,2.69,0,0,0,.51-.69.41.41,0,0,1,0-.09,3.15,3.15,0,0,0,.25-.86s0,0,0-.07c.43-3.57,2.56-15.7,12-21.93a2.22,2.22,0,0,0,.44-.37l.08-.1a3.3,3.3,0,0,0,.3-.43.18.18,0,0,0,0-.07.3.3,0,0,0,0-.1,2.36,2.36,0,0,0,.12-.28,2,2,0,0,0,.07-.23,1.31,1.31,0,0,0,.06-.27,2.29,2.29,0,0,0,0-.52A2.44,2.44,0,0,0,133.31,117Z" class="cls-3"/><path d="M331.27,84.63l0-.24c0-.08,0-.16-.06-.25a1.72,1.72,0,0,0-.07-.21,2.77,2.77,0,0,0-.1-.26.36.36,0,0,1,0-.09l-.06-.09-.15-.23-.14-.17c-.06-.06-.11-.12-.17-.17l-.19-.16a.34.34,0,0,1-.09-.08c-8.7-5.73-10.66-16.91-11.06-20.2l0-.14-.06-.28c0-.07,0-.14-.07-.21s-.07-.17-.1-.24l-.11-.2-.14-.21c0-.06-.09-.11-.13-.16a1.7,1.7,0,0,0-.19-.19l-.15-.12-.21-.15-.18-.09a.85.85,0,0,0-.22-.09l-.23-.07a.7.7,0,0,0-.14,0h-.6l-.14,0a1,1,0,0,0-.23.06,2.18,2.18,0,0,0-.23.09l-.17.09-.22.16-.14.11a1.8,1.8,0,0,0-.19.2l-.12.14a1.5,1.5,0,0,0-.15.23,1.62,1.62,0,0,0-.1.18,2.72,2.72,0,0,0-.11.25c0,.07-.05.14-.07.21l-.06.28,0,.14c-.39,3.29-2.36,14.47-11.06,20.2l-.09.08-.18.15-.18.18a1.83,1.83,0,0,0-.13.16c-.06.08-.11.16-.16.24l-.06.09a.36.36,0,0,1,0,.09,2.77,2.77,0,0,0-.1.26,1.72,1.72,0,0,0-.07.21l-.06.25,0,.24a2,2,0,0,0,0,.25,1.93,1.93,0,0,0,0,.24l0,.24.06.25a1.72,1.72,0,0,0,.07.21,2,2,0,0,0,.1.26.36.36,0,0,1,0,.09l0,.07a2.14,2.14,0,0,0,.28.39.61.61,0,0,0,.07.1,3.26,3.26,0,0,0,.4.34c8.7,5.73,10.67,16.91,11.06,20.2,0,0,0,0,0,.06a2.89,2.89,0,0,0,.23.79l.05.09a2.6,2.6,0,0,0,.46.64h0a2.43,2.43,0,0,0,.63.43l.06,0a2.09,2.09,0,0,0,.49.13l.29,0h0l.29,0a2,2,0,0,0,.49-.13l.06,0a2.43,2.43,0,0,0,.63-.43h0a2.6,2.6,0,0,0,.46-.64.41.41,0,0,0,.05-.09,2.58,2.58,0,0,0,.23-.79s0,0,0-.06c.4-3.29,2.36-14.47,11.06-20.2a3.26,3.26,0,0,0,.4-.34l.08-.1a2.7,2.7,0,0,0,.27-.39l.05-.07a.36.36,0,0,1,0-.09,2,2,0,0,0,.1-.26,1.72,1.72,0,0,0,.07-.21,2.27,2.27,0,0,0,.06-.25l0-.24a1.93,1.93,0,0,0,0-.24A2,2,0,0,0,331.27,84.63Z" class="cls-1"/><path d="M747.53,149.28l0-.26-.06-.27a1.55,1.55,0,0,0-.08-.23c0-.1-.07-.19-.11-.29a.36.36,0,0,1,0-.09.86.86,0,0,0-.07-.1,2.13,2.13,0,0,0-.16-.25,1.46,1.46,0,0,0-.16-.19,1,1,0,0,0-.18-.18c-.07-.07-.14-.12-.21-.18l-.1-.08c-9.43-6.22-11.57-18.35-12-21.92a.76.76,0,0,0,0-.16l-.06-.3a2.25,2.25,0,0,1-.08-.24c0-.08-.07-.17-.11-.25l-.12-.22-.15-.23a2.09,2.09,0,0,1-.14-.17l-.2-.2-.17-.14-.22-.16-.21-.1-.23-.1-.25-.07-.15,0h-.66l-.15,0-.24.06-.25.11a1.63,1.63,0,0,0-.19.09l-.24.17-.15.12-.21.22a1,1,0,0,0-.13.16c-.06.08-.11.16-.16.24a2,2,0,0,0-.11.2c-.05.09-.08.18-.12.27s-.05.15-.07.22,0,.21-.07.31l0,.16c-.43,3.57-2.56,15.7-12,21.92l-.11.09-.19.16c-.07.06-.13.13-.19.19l-.15.18a2.33,2.33,0,0,0-.17.26l-.06.1a.36.36,0,0,0,0,.09,1.78,1.78,0,0,0-.12.29c0,.07,0,.15-.08.23a2.56,2.56,0,0,0-.05.27,2,2,0,0,0,0,.26,2.17,2.17,0,0,0,0,.26,2.44,2.44,0,0,0,0,.27c0,.08,0,.17,0,.26a2.56,2.56,0,0,0,.05.27c0,.07,0,.15.08.22a1.48,1.48,0,0,0,.12.29.69.69,0,0,0,0,.1l.05.07a2.38,2.38,0,0,0,.3.43l.08.1a2.61,2.61,0,0,0,.44.37c9.44,6.23,11.57,18.36,12,21.93,0,0,0,0,0,.07a2.7,2.7,0,0,0,.25.85.41.41,0,0,1,0,.09,3,3,0,0,0,.5.7l0,0a2.63,2.63,0,0,0,.68.46l.06,0a2.46,2.46,0,0,0,.53.15l.32,0h0l.32,0a2.46,2.46,0,0,0,.53-.15l.06,0a2.63,2.63,0,0,0,.68-.46l0,0a2.7,2.7,0,0,0,.5-.7.41.41,0,0,0,0-.09,2.7,2.7,0,0,0,.25-.85.25.25,0,0,0,0-.07c.43-3.57,2.57-15.7,12-21.93a2.27,2.27,0,0,0,.44-.37l.08-.1a3.11,3.11,0,0,0,.31-.43.18.18,0,0,1,.05-.07.3.3,0,0,1,0-.1,2.49,2.49,0,0,0,.11-.29,2,2,0,0,0,.08-.22l.06-.27,0-.26a2.44,2.44,0,0,0,0-.27A2.17,2.17,0,0,0,747.53,149.28Z" class="cls-3"/><path d="M942.29,87.22l0-.23c0-.08,0-.16,0-.24s-.05-.13-.07-.2a2.44,2.44,0,0,0-.1-.24s0-.06,0-.09,0,0,0-.08l-.15-.22-.13-.17a1.21,1.21,0,0,0-.16-.16l-.18-.15-.09-.07c-8.24-5.44-10.11-16-10.48-19.15l0-.14a2,2,0,0,0-.06-.26,1.72,1.72,0,0,0-.07-.21l-.09-.22c0-.07-.07-.13-.1-.19s-.09-.14-.14-.2l-.12-.15-.17-.18-.15-.12a1.37,1.37,0,0,0-.2-.13,1,1,0,0,0-.17-.1l-.21-.08a1.41,1.41,0,0,0-.22-.06l-.13,0h-.57l-.13,0a1.41,1.41,0,0,0-.22.06,1,1,0,0,0-.21.09l-.16.08-.22.15-.13.11-.18.19L927,65l-.14.22-.09.17a2.44,2.44,0,0,0-.1.24,1.46,1.46,0,0,0-.07.19l-.06.27s0,.09,0,.14c-.38,3.11-2.24,13.71-10.49,19.15l-.09.08-.17.14a1.37,1.37,0,0,0-.17.17l-.12.15a1.14,1.14,0,0,0-.15.23l-.06.08,0,.09a2.56,2.56,0,0,0-.11.24l-.06.2a2,2,0,0,0,0,.24.91.91,0,0,0,0,.23,1.69,1.69,0,0,0,0,.23,1.77,1.77,0,0,0,0,.23.91.91,0,0,0,0,.23,1.89,1.89,0,0,0,0,.23l.06.2a1.89,1.89,0,0,0,.11.25l0,.08s0,0,0,.07a3.18,3.18,0,0,0,.27.37l.07.09a3,3,0,0,0,.38.33c8.25,5.43,10.11,16,10.49,19.15,0,0,0,0,0,.06a2.71,2.71,0,0,0,.22.75l0,.08a2.16,2.16,0,0,0,.44.6l0,0a2,2,0,0,0,.59.4l.06,0a1.74,1.74,0,0,0,.46.13l.28,0h0l.28,0a1.81,1.81,0,0,0,.47-.13l0,0a2.17,2.17,0,0,0,.6-.4l0,0a2.65,2.65,0,0,0,.44-.6s0,0,0-.08a2.71,2.71,0,0,0,.22-.75s0,0,0-.06c.37-3.12,2.24-13.72,10.48-19.15a2.43,2.43,0,0,0,.38-.33l.08-.09a3.09,3.09,0,0,0,.26-.37s0,0,0-.07,0,0,0-.08a1.86,1.86,0,0,0,.1-.25c0-.06.05-.13.07-.2s0-.15,0-.23l0-.23c0-.08,0-.15,0-.23S942.29,87.29,942.29,87.22Z" class="cls-5"/><path d="M877.33,195.44a.77.77,0,0,0,0-.15l0-.15s0-.09,0-.13a.77.77,0,0,0-.07-.16l0-.06,0,0-.1-.15-.09-.1-.11-.11-.13-.09-.06,0c-5.8-3.53-7.11-10.42-7.37-12.45a.29.29,0,0,1,0-.09c0-.06,0-.11,0-.17s0-.09,0-.13a1,1,0,0,0-.07-.15l-.07-.12-.09-.13-.09-.1-.12-.11-.1-.08-.14-.09-.13-.06-.14-.05-.16,0-.09,0h-.4l-.1,0-.15,0a.47.47,0,0,0-.15.06l-.11.05-.15.1-.09.07a.74.74,0,0,0-.13.12l-.08.09a.71.71,0,0,0-.1.14l-.07.11-.07.15s0,.09,0,.13a1,1,0,0,0,0,.17l0,.09c-.26,2-1.57,8.92-7.37,12.45l-.06,0-.12.09-.12.11-.09.1a1.3,1.3,0,0,0-.1.15l0,0,0,.06c0,.05,0,.1-.07.16s0,.09-.05.13l0,.15a.77.77,0,0,0,0,.15,1.13,1.13,0,0,0,0,.3.77.77,0,0,0,0,.15l0,.15c0,.05,0,.09.05.13s0,.11.07.16l0,.06,0,0a1.37,1.37,0,0,0,.18.24l.06.06a1.33,1.33,0,0,0,.26.21c5.8,3.53,7.11,10.42,7.37,12.45a.05.05,0,0,1,0,0,1.34,1.34,0,0,0,.15.48l0,.06a2,2,0,0,0,.31.39h0a1.29,1.29,0,0,0,.42.26l0,0a1.32,1.32,0,0,0,.33.08l.2,0h0l.19,0a1.23,1.23,0,0,0,.33-.08l0,0a1.45,1.45,0,0,0,.43-.26h0A1.66,1.66,0,0,0,869,210l0-.06a1.34,1.34,0,0,0,.15-.48l0,0c.26-2,1.57-8.92,7.37-12.45a1.39,1.39,0,0,0,.27-.21l0-.06a1.37,1.37,0,0,0,.18-.24s0,0,0,0l0-.06a.77.77,0,0,0,.07-.16s0-.08,0-.13l0-.15a.77.77,0,0,0,0-.15,1.13,1.13,0,0,0,0-.3Z" class="cls-4"/><path d="M1067.81,153.76l0-.24-.06-.25a1.72,1.72,0,0,0-.07-.21,2,2,0,0,0-.1-.26.36.36,0,0,1,0-.09l-.06-.09-.15-.23-.15-.18L1067,152a1.49,1.49,0,0,0-.2-.15l-.08-.08c-8.7-5.73-10.67-16.91-11.06-20.2l0-.15-.06-.27a1.43,1.43,0,0,0-.08-.22l-.09-.24-.11-.19c0-.07-.09-.15-.14-.21s-.09-.11-.13-.16a1.7,1.7,0,0,0-.19-.19l-.15-.12a1,1,0,0,0-.21-.15l-.18-.1-.22-.09-.23-.06-.14,0a.16.16,0,0,1-.07,0h-.46a.16.16,0,0,1-.07,0l-.14,0-.23.06-.23.1-.17.09a1.7,1.7,0,0,0-.22.15l-.14.11-.19.21a.53.53,0,0,0-.12.14,1.14,1.14,0,0,0-.15.23,1.62,1.62,0,0,0-.1.18,1.89,1.89,0,0,0-.11.25c0,.07,0,.13-.07.2l-.06.28,0,.15c-.4,3.29-2.36,14.47-11.06,20.2l-.09.08-.18.15-.18.18a1,1,0,0,0-.13.16l-.16.24-.06.09a.36.36,0,0,1,0,.09,2,2,0,0,0-.1.26,1.72,1.72,0,0,0-.07.21,2.27,2.27,0,0,0-.06.25l0,.24a1.93,1.93,0,0,0,0,.24,2,2,0,0,0,0,.25l0,.24a2.1,2.1,0,0,0,.06.24,1.42,1.42,0,0,0,.07.22,2.77,2.77,0,0,0,.1.26.36.36,0,0,1,0,.09l0,.06a3.51,3.51,0,0,0,.27.4l.08.09a1.85,1.85,0,0,0,.4.34c8.7,5.74,10.66,16.92,11.06,20.21,0,0,0,0,0,.06a2.66,2.66,0,0,0,.23.79.35.35,0,0,0,0,.08,2.27,2.27,0,0,0,.46.64s0,0,0,0a2.17,2.17,0,0,0,.63.42l.06,0a1.63,1.63,0,0,0,.49.14,1.46,1.46,0,0,0,.29,0h0a1.46,1.46,0,0,0,.29,0,1.71,1.71,0,0,0,.49-.14l.06,0a2.17,2.17,0,0,0,.63-.42s0,0,0,0a2.49,2.49,0,0,0,.46-.64l.05-.08a3,3,0,0,0,.23-.79s0,0,0-.06c.39-3.29,2.36-14.47,11.06-20.21a2.12,2.12,0,0,0,.4-.34l.07-.09a2.63,2.63,0,0,0,.28-.4l0-.06a.36.36,0,0,1,0-.09,2.77,2.77,0,0,0,.1-.26,1.42,1.42,0,0,0,.07-.22l.06-.24,0-.24a2,2,0,0,0,0-.25A1.93,1.93,0,0,0,1067.81,153.76Z" class="cls-1"/></g></g></g></svg>