<svg xmlns="http://www.w3.org/2000/svg" xmlns:svg="http://www.w3.org/2000/svg" id="Shell_x5F_2012_x5F_PECTEN_x5F_RGB" width="128" height="128" version="1.1" viewBox="0 0 128 128" xml:space="preserve"><metadata id="metadata17"/><rect id="rect3" width="141.7" height="141.7" x="-12.1" y=".3" style="fill:none"/><g id="g5" transform="matrix(1.7643005,0,0,1.7643005,-39.564439,-36.300588)"><path id="path7" d="m 54.6,87.8 h -18 L 35,74.5 24,66.6 c -0.5,-2.3 -0.7,-4.7 -0.7,-7.1 0,-19.6 15.9,-35.4 35.4,-35.4 19.6,0 35.4,15.9 35.4,35.4 0,2.4 -0.2,4.8 -0.7,7.1 l -10.9,7.9 -1.7,13.3 h -18 l -1,0.8 c -0.9,0.7 -2,1 -3.1,1 -1.1,0 -2.2,-0.4 -3.1,-1 l -1,-0.8 z" style="fill:none;stroke:#fff;stroke-width:1.75;stroke-miterlimit:40"/><path id="path9" d="m 54.6,87.8 h -18 L 35,74.5 24,66.6 c -0.5,-2.3 -0.7,-4.7 -0.7,-7.1 0,-19.6 15.9,-35.4 35.4,-35.4 19.6,0 35.4,15.9 35.4,35.4 0,2.4 -0.2,4.8 -0.7,7.1 l -10.9,7.9 -1.7,13.3 h -18 l -1,0.8 c -0.9,0.7 -2,1 -3.1,1 -1.1,0 -2.2,-0.4 -3.1,-1 l -1,-0.8 z" style="fill:#fbce07"/><path id="path11" d="m 54.6,87.8 h -18 L 35,74.5 24,66.6 c -0.5,-2.3 -0.7,-4.7 -0.7,-7.1 0,-19.6 15.9,-35.4 35.4,-35.4 19.5,0 35.4,15.9 35.4,35.4 0,2.4 -0.2,4.8 -0.7,7.1 l -10.9,7.9 -1.7,13.3 h -18 l -1,0.8 c -0.9,0.7 -2,1 -3.1,1 -1.1,0 -2.2,-0.4 -3.1,-1 l -1,-0.8 z m 0.6,-6.2 H 42.1 L 40.8,71 30,63.2 c -0.3,-1.2 -0.5,-2.5 -0.5,-3.8 0,-2.1 0.4,-4.2 1.3,-6.1 L 49.9,72.6 31.4,49.7 c 0.7,-3 2.3,-5.6 4.6,-7.7 L 52.6,70.7 37.9,39.4 c 1.9,-2.5 4.6,-4.4 7.6,-5.3 L 55.7,69.7 48.3,32.6 c 2.3,-1.3 4.8,-1.9 7.4,-1.9 0.5,0 1.1,0 1.6,0.1 l 1.5,38.5 1.5,-38.5 c 0.5,-0.1 1.1,-0.1 1.6,-0.1 2.6,0 5.1,0.7 7.4,1.9 L 61.9,69.7 72.1,34 c 3,0.9 5.7,2.8 7.6,5.3 L 64.9,70.7 81.5,42 c 2.3,2 3.9,4.7 4.6,7.7 L 67.6,72.6 86.7,53.3 c 0.9,1.9 1.3,4 1.3,6.1 0,1.3 -0.2,2.5 -0.5,3.8 L 76.7,71 75.4,81.6 h -13 l -2,1.4 c -0.5,0.4 -1.1,0.5 -1.7,0.5 -0.6,0 -1.2,-0.2 -1.7,-0.5 l -1.8,-1.4 z" style="fill:#dd1d21;fill-rule:evenodd"/></g></svg>